<?xml version="1.0" encoding="utf-8"?>
<!-- Generator: Adobe Illustrator 22.0.1, SVG Export Plug-In . SVG Version: 6.00 Build 0)  -->
<svg version="1.1" id="Layer_1" xmlns="http://www.w3.org/2000/svg" xmlns:xlink="http://www.w3.org/1999/xlink" x="0px" y="0px"
	 viewBox="0 0 640 640" style="enable-background:new 0 0 640 640;" xml:space="preserve">
<style type="text/css">
	.st0{fill:none;}
	.st1{fill:none;stroke:#000000;stroke-miterlimit:10;}
</style>
<g>
	<rect x="73.8" y="395.8" class="st0" width="0.7" height="11.5"/>
</g>
<g>
	<path class="st1" d="M36.3,618.8c0.6,0.4,1.2,0.7,1.8,0.8c0.6,0.2,1.3,0.2,2.2,0.2c3.5,0,5.3-2.3,5.3-7v-63.7H61v64
		c0,3.8-0.5,7-1.5,9.7c-1,2.6-2.4,4.8-4.1,6.5c-1.7,1.7-3.7,2.9-6,3.6c-2.3,0.8-4.7,1.1-7.3,1.1c-2,0-3.7-0.1-5.3-0.4
		c-1.6-0.3-3-0.7-4.4-1.2L36.3,618.8z M53.2,541.5c-1.3,0-2.6-0.3-3.8-0.8c-1.2-0.5-2.3-1.2-3.2-2.1c-0.9-0.9-1.6-1.9-2.1-3.1
		c-0.5-1.2-0.8-2.5-0.8-3.9s0.3-2.7,0.8-3.9c0.5-1.2,1.2-2.2,2.1-3.1c0.9-0.9,2-1.6,3.2-2.1c1.2-0.5,2.5-0.8,3.8-0.8
		c2.7,0,5.1,1,7.1,2.9c2,1.9,2.9,4.3,2.9,7c0,2.7-1,5.1-2.9,7C58.3,540.5,56,541.5,53.2,541.5z"/>
	<path class="st1" d="M110,600.7h-0.9c-1.8,2.2-4,4.1-6.5,5.6c-2.5,1.6-5.8,2.4-9.8,2.4c-3,0-5.8-0.5-8.4-1.5
		c-2.6-1-4.9-2.3-6.9-4.1c-2-1.7-3.5-3.8-4.6-6.2c-1.1-2.4-1.6-5.1-1.6-8c0-3,0.6-5.7,1.8-8.1c1.2-2.4,2.8-4.4,4.9-6.2
		c2.1-1.7,4.6-3,7.5-3.9c2.9-0.9,6-1.4,9.3-1.4c3.8,0,6.9,0.3,9.3,0.9c2.4,0.6,4.4,1.2,6,1.8v-1.8c0-3.1-1.2-5.6-3.6-7.6
		c-2.4-2-5.4-3-9.1-3c-5.3,0-9.8,2.2-13.5,6.7l-11.2-7.6c6.1-7.7,14.5-11.5,25-11.5c8.9,0,15.8,2.1,20.5,6.3
		c4.7,4.2,7.1,10.4,7.1,18.6v34.6H110V600.7z M110,583.5c-1.8-0.9-3.7-1.5-5.6-2.1c-1.9-0.5-4-0.8-6.3-0.8c-3.7,0-6.5,0.8-8.5,2.4
		c-2,1.6-3,3.6-3,5.9c0,2.4,1,4.2,2.9,5.6c1.9,1.4,4.1,2.1,6.6,2.1c2,0,3.9-0.4,5.6-1.1c1.7-0.7,3.2-1.7,4.4-2.9
		c1.2-1.2,2.2-2.6,2.8-4.2C109.7,586.8,110,585.2,110,583.5z"/>
	<path class="st1" d="M137.4,522.7h15.4v45.9h0.7l19.3-19.3h19v0.9L170.5,571l23.2,34.9v0.9h-18.2l-15.8-25.3l-6.8,6.7v18.6h-15.4
		V522.7z"/>
	<path class="st1" d="M252.7,592.2c-2.5,4.9-6,8.8-10.5,11.9c-4.5,3.1-10.1,4.6-16.9,4.6c-4.5,0-8.6-0.8-12.3-2.3
		c-3.7-1.5-6.9-3.7-9.6-6.4c-2.7-2.7-4.8-6-6.4-9.7c-1.5-3.7-2.3-7.8-2.3-12.3s0.8-8.6,2.3-12.3c1.5-3.8,3.6-7,6.4-9.7
		c2.7-2.7,5.9-4.8,9.6-6.3c3.7-1.5,7.8-2.3,12.3-2.3c6.7,0,12.3,1.5,16.8,4.6c4.5,3.1,7.9,7,10,11.9l-14.1,5.9
		c-1.3-2.7-3-4.7-5.1-6.1c-2.1-1.4-4.7-2.1-7.8-2.1c-2,0-4,0.4-5.8,1.2c-1.8,0.8-3.4,1.9-4.8,3.3c-1.4,1.4-2.5,3.1-3.2,5.2
		c-0.8,2-1.2,4.3-1.2,6.8c0,2.5,0.4,4.8,1.2,6.8c0.8,2,1.9,3.8,3.2,5.2c1.4,1.4,3,2.5,4.8,3.3c1.8,0.8,3.7,1.2,5.8,1.2
		c3.2,0,5.9-0.7,8.2-2.2c2.2-1.4,4-3.5,5.4-6.3L252.7,592.2z"/>
	<path class="st1" d="M262.1,522.7h15.4v23.6l-0.9,10.5h0.9c1.6-2.7,4-5,7.1-6.8c3.1-1.8,6.6-2.6,10.4-2.6c7.4,0,13,2.2,16.5,6.6
		c3.6,4.4,5.4,10.4,5.4,18v34.9h-15.4v-33c0-4-0.9-7-2.8-9.1c-1.9-2.1-4.5-3.1-7.9-3.1c-2.1,0-4,0.5-5.6,1.4c-1.6,0.9-3,2.1-4.2,3.7
		c-1.1,1.6-2,3.4-2.6,5.5c-0.6,2.1-0.9,4.3-0.9,6.6v28.1h-15.4V522.7z"/>
	<path class="st1" d="M364.5,600.7h-0.9c-1.8,2.2-4,4.1-6.5,5.6c-2.5,1.6-5.8,2.4-9.8,2.4c-3,0-5.8-0.5-8.4-1.5
		c-2.6-1-4.9-2.3-6.9-4.1c-2-1.7-3.5-3.8-4.6-6.2c-1.1-2.4-1.6-5.1-1.6-8c0-3,0.6-5.7,1.8-8.1c1.2-2.4,2.8-4.4,4.9-6.2
		c2.1-1.7,4.6-3,7.5-3.9c2.9-0.9,6-1.4,9.3-1.4c3.8,0,6.9,0.3,9.3,0.9c2.4,0.6,4.4,1.2,6,1.8v-1.8c0-3.1-1.2-5.6-3.6-7.6
		c-2.4-2-5.5-3-9.1-3c-5.3,0-9.8,2.2-13.5,6.7l-11.2-7.6c6.1-7.7,14.5-11.5,25-11.5c8.9,0,15.8,2.1,20.5,6.3
		c4.7,4.2,7.1,10.4,7.1,18.6v34.6h-15.2V600.7z M364.5,583.5c-1.8-0.9-3.7-1.5-5.6-2.1c-1.9-0.5-4-0.8-6.3-0.8
		c-3.7,0-6.5,0.8-8.5,2.4c-2,1.6-3,3.6-3,5.9c0,2.4,1,4.2,2.9,5.6c1.9,1.4,4.1,2.1,6.6,2.1c2,0,3.9-0.4,5.6-1.1
		c1.7-0.7,3.2-1.7,4.4-2.9c1.2-1.2,2.2-2.6,2.8-4.2C364.2,586.8,364.5,585.2,364.5,583.5z"/>
	<path class="st1" d="M391.9,549.2h14.5v8h0.9c0.7-1.4,1.6-2.7,2.8-3.9c1.2-1.2,2.5-2.2,3.9-3.1c1.4-0.9,3-1.6,4.7-2.1
		c1.7-0.5,3.4-0.8,5-0.8c2,0,3.8,0.2,5.2,0.7c1.5,0.4,2.7,1,3.7,1.7l-4.1,13.8c-0.9-0.5-2-0.8-3.1-1.1c-1.1-0.3-2.5-0.4-4.2-0.4
		c-2.1,0-4,0.4-5.8,1.2c-1.7,0.8-3.2,2-4.4,3.5c-1.2,1.5-2.2,3.3-2.8,5.3c-0.7,2-1,4.2-1,6.6v28.4h-15.4V549.2z"/>
	<path class="st1" d="M434.8,549.2h17.5l14.3,36.7h0.8l14.5-36.7h17.4l-24.8,57.6h-15.2L434.8,549.2z"/>
	<path class="st1" d="M540.8,600.7h-0.9c-1.8,2.2-4,4.1-6.5,5.6c-2.5,1.6-5.8,2.4-9.8,2.4c-3,0-5.8-0.5-8.4-1.5
		c-2.6-1-4.9-2.3-6.9-4.1c-2-1.7-3.5-3.8-4.6-6.2c-1.1-2.4-1.6-5.1-1.6-8c0-3,0.6-5.7,1.8-8.1c1.2-2.4,2.8-4.4,4.9-6.2
		c2.1-1.7,4.6-3,7.5-3.9c2.9-0.9,6-1.4,9.3-1.4c3.8,0,6.9,0.3,9.3,0.9c2.4,0.6,4.4,1.2,6,1.8v-1.8c0-3.1-1.2-5.6-3.6-7.6
		c-2.4-2-5.5-3-9.1-3c-5.3,0-9.8,2.2-13.5,6.7l-11.2-7.6c6.1-7.7,14.5-11.5,25-11.5c8.9,0,15.8,2.1,20.5,6.3
		c4.7,4.2,7.1,10.4,7.1,18.6v34.6h-15.2V600.7z M540.8,583.5c-1.8-0.9-3.7-1.5-5.6-2.1c-1.9-0.5-4-0.8-6.3-0.8
		c-3.7,0-6.5,0.8-8.5,2.4c-2,1.6-3,3.6-3,5.9c0,2.4,1,4.2,2.9,5.6c1.9,1.4,4.1,2.1,6.6,2.1c2,0,3.9-0.4,5.6-1.1
		c1.7-0.7,3.2-1.7,4.4-2.9c1.2-1.2,2.2-2.6,2.8-4.2C540.4,586.8,540.8,585.2,540.8,583.5z"/>
	<path class="st1" d="M573.4,562.4h-10.1v-13.2h10.1v-17.6h15.4v17.6h14.1v13.2h-14.1v23c0,1.4,0.1,2.6,0.4,3.8
		c0.3,1.2,0.8,2.2,1.6,3c1.1,1.3,2.7,1.9,4.7,1.9c1.3,0,2.4-0.1,3.2-0.4c0.8-0.3,1.5-0.6,2.2-1.1l4.4,13.5c-1.8,0.9-3.7,1.5-5.8,1.9
		c-2.1,0.4-4.4,0.6-6.9,0.6c-2.9,0-5.5-0.5-7.8-1.4c-2.3-0.9-4.3-2.2-5.8-3.8c-3.7-3.6-5.5-8.7-5.5-15.4V562.4z"/>
</g>
<g>
	<g>
		<g>
			<g>
				<g>
					<g>
						<line class="st0" x1="263.8" y1="139.2" x2="263.8" y2="153.1"/>
						<path d="M265.6,138.6v14.7c0,0.8-0.6,1.4-1.4,1.4c-0.8,0-1.4-0.6-1.4-1.4v-14.7c0-0.8,0.6-1.4,1.4-1.4
							C265,137.2,265.6,137.8,265.6,138.6z"/>
					</g>
					<g>
						<line class="st0" x1="263.8" y1="121.7" x2="263.8" y2="132.8"/>
						<line class="st0" x1="263.8" y1="83.8" x2="263.8" y2="94.9"/>
					</g>
					<g>
						<line class="st0" x1="257.3" y1="155.9" x2="257.3" y2="158.6"/>
						<path d="M259.1,155.5v3.5c0,0.8-0.6,1.4-1.4,1.4c-0.8,0-1.4-0.6-1.4-1.4v-3.5c0-0.5,0.3-1,0.8-1.2
							C258.1,153.8,259.1,154.5,259.1,155.5z"/>
					</g>
					<g>
						<line class="st0" x1="257.3" y1="130.9" x2="257.3" y2="151.2"/>
						<path d="M259.1,130.2v21.6c0,0.8-0.6,1.4-1.4,1.4c-0.8,0-1.4-0.6-1.4-1.4v-21.6c0-0.8,0.6-1.4,1.4-1.4c0.6,0,1.2,0.4,1.3,1
							C259.1,130,259.1,130.1,259.1,130.2z"/>
					</g>
					<g>
						<line class="st0" x1="257.3" y1="121.7" x2="257.3" y2="125.4"/>
						<line class="st0" x1="257.3" y1="81" x2="257.3" y2="94.9"/>
					</g>
					<g>
						<line class="st0" x1="250.8" y1="124.4" x2="250.8" y2="135.5"/>
						<line class="st0" x1="250.8" y1="69.9" x2="250.8" y2="92.1"/>
					</g>
					<g>
						<line class="st0" x1="244.3" y1="132.8" x2="244.3" y2="164.2"/>
						<path d="M246.2,132.3v31.6c0,0.7-0.6,1.3-1.4,1.3c-0.8,0-1.4-0.6-1.4-1.3v-31.5c0-0.5,0.3-1.1,0.8-1.2
							C245.2,130.8,246.2,131.5,246.2,132.3z"/>
					</g>
					<g>
						<line class="st0" x1="244.3" y1="124.4" x2="244.3" y2="126.3"/>
						<line class="st0" x1="244.3" y1="89.3" x2="244.3" y2="94.9"/>
					</g>
					<g>
						<line class="st0" x1="237.9" y1="143.9" x2="237.9" y2="155.9"/>
						<path d="M239.7,143.6v13.2c0,0.8-0.6,1.4-1.4,1.4c-0.8,0-1.4-0.6-1.4-1.4v-13.2c0-0.8,0.6-1.4,1.4-1.4
							C239.1,142.2,239.7,142.8,239.7,143.6z"/>
					</g>
					<g>
						<line class="st0" x1="237.9" y1="121.7" x2="237.9" y2="139.2"/>
						<line class="st0" x1="237.9" y1="83.8" x2="237.9" y2="94.9"/>
					</g>
				</g>
				<g>
					<g>
						<line class="st0" x1="263.8" y1="224.2" x2="263.8" y2="238.1"/>
						<path d="M262.8,238.6v-14.7c0-0.8,0.6-1.4,1.4-1.4c0.8,0,1.4,0.6,1.4,1.4v14.7c0,0.8-0.6,1.4-1.4,1.4
							C263.4,239.9,262.8,239.3,262.8,238.6z"/>
					</g>
					<g>
						<line class="st0" x1="263.8" y1="168.8" x2="263.8" y2="217.8"/>
						<path d="M265.6,168.9v48.7c0,0.7-0.6,1.3-1.4,1.3c-0.8,0-1.4-0.6-1.4-1.3v-48.7c0-0.7,0.6-1.3,1.4-1.3c0.5,0,1,0.3,1.2,0.7
							C265.5,168.4,265.6,168.6,265.6,168.9z"/>
					</g>
					<g>
						<line class="st0" x1="257.3" y1="240.9" x2="257.3" y2="243.6"/>
						<path d="M256.4,244.2v-3.5c0-0.8,0.6-1.4,1.4-1.4c0.8,0,1.4,0.6,1.4,1.4v3.5c0,0.8-0.6,1.4-1.4,1.4
							C257,245.6,256.4,245,256.4,244.2z"/>
					</g>
					<g>
						<line class="st0" x1="257.3" y1="215.9" x2="257.3" y2="236.2"/>
						<path d="M259.1,215.5V237c0,0.8-0.6,1.4-1.4,1.4c-0.8,0-1.4-0.6-1.4-1.4v-21.6c0-0.4,0.2-0.8,0.5-1.1c0.2-0.2,0.6-0.3,0.9-0.3
							c0.3,0,0.6,0.1,0.9,0.3C258.9,214.6,259.1,215,259.1,215.5z"/>
					</g>
					<g>
						<line class="st0" x1="257.3" y1="166" x2="257.3" y2="210.4"/>
						<path d="M259.1,165.8l0,44.7c0,0.5-0.3,1.1-0.8,1.2c-1,0.4-2-0.3-2-1.2v-44.8c0-0.1,0-0.2,0.1-0.3c0.1-0.4,0.5-0.8,0.9-0.9
							c0.1,0,0.3-0.1,0.4-0.1c0.6,0,1.1,0.3,1.3,0.8C259.1,165.5,259.1,165.6,259.1,165.8z"/>
					</g>
					<g>
						<line class="st0" x1="250.8" y1="155.9" x2="250.8" y2="221.5"/>
						<path d="M252.7,155.6v65.5c0,0.7-0.6,1.3-1.4,1.3c-0.8,0-1.4-0.6-1.4-1.3v-65.5c0-0.7,0.6-1.3,1.4-1.3
							C252,154.4,252.7,154.9,252.7,155.6z"/>
					</g>
					<g>
						<line class="st0" x1="244.3" y1="217.8" x2="244.3" y2="249.2"/>
						<path d="M243.4,249.1v-31.5c0-0.7,0.6-1.3,1.4-1.3c0.8,0,1.4,0.6,1.4,1.3v31.5c0,0.7-0.6,1.3-1.4,1.3
							C244,250.4,243.4,249.8,243.4,249.1z"/>
					</g>
					<g>
						<line class="st0" x1="244.3" y1="174.3" x2="244.3" y2="212.2"/>
						<path d="M246.2,174.5v37.3c0,0.7-0.6,1.3-1.4,1.3c-0.8,0-1.4-0.6-1.4-1.3v-37.3c0-0.7,0.6-1.3,1.4-1.3
							C245.6,173.2,246.2,173.7,246.2,174.5z"/>
					</g>
					<g>
						<line class="st0" x1="237.9" y1="229.8" x2="237.9" y2="241.8"/>
						<path d="M237,242v-13.2c0-0.8,0.6-1.4,1.4-1.4c0.8,0,1.4,0.6,1.4,1.4V242c0,0.8-0.6,1.4-1.4,1.4
							C237.6,243.4,237,242.8,237,242z"/>
					</g>
					<g>
						<line class="st0" x1="237.9" y1="168.8" x2="237.9" y2="224.2"/>
						<path d="M239.7,168.8v55.6c0,0.7-0.6,1.3-1.4,1.3c-0.8,0-1.4-0.6-1.4-1.3v-55.5c0-0.5,0.3-1.1,0.8-1.3
							C238.8,167.3,239.7,168,239.7,168.8z"/>
					</g>
				</g>
				<g>
					<g>
						<line class="st0" x1="263.8" y1="310.2" x2="263.8" y2="323.1"/>
						<path d="M262.8,323.8v-14.7c0-0.8,0.6-1.4,1.4-1.4c0.8,0,1.4,0.6,1.4,1.4v14.7c0,0.8-0.6,1.4-1.4,1.4
							C263.4,325.2,262.8,324.6,262.8,323.8z"/>
					</g>
					<g>
						<line class="st0" x1="263.8" y1="253.8" x2="263.8" y2="302.8"/>
						<path d="M262.8,302.8v-48.7c0-0.7,0.6-1.3,1.4-1.3c0.8,0,1.4,0.6,1.4,1.3l0,48.7c0,0.7-0.6,1.3-1.4,1.3
							C263.4,304.1,262.8,303.6,262.8,302.8z"/>
					</g>
					<g>
						<line class="st0" x1="257.3" y1="325.9" x2="257.3" y2="329.6"/>
						<path d="M256.4,329.4V326c0-0.8,0.6-1.4,1.4-1.4c0.8,0,1.4,0.6,1.4,1.4v3.5c0,0.8-0.6,1.4-1.4,1.4
							C257,330.8,256.4,330.2,256.4,329.4z"/>
					</g>
					<g>
						<line class="st0" x1="257.3" y1="301.8" x2="257.3" y2="321.2"/>
						<path d="M256.4,322.3v-21.6c0-0.8,0.6-1.4,1.4-1.4c0.8,0,1.4,0.6,1.4,1.4v21.6c0,0.8-0.6,1.4-1.4,1.4
							C257,323.7,256.4,323.1,256.4,322.3z"/>
					</g>
					<g>
						<line class="st0" x1="257.3" y1="251" x2="257.3" y2="295.4"/>
						<path d="M256.4,295.8V251c0-0.7,0.6-1.3,1.4-1.3c0.8,0,1.4,0.6,1.4,1.3v44.8c0,0.7-0.6,1.3-1.4,1.3
							C257,297.1,256.4,296.5,256.4,295.8z"/>
					</g>
					<g>
						<line class="st0" x1="250.8" y1="240.9" x2="250.8" y2="306.5"/>
						<path d="M249.9,306.4v-65.5c0-0.7,0.6-1.3,1.4-1.3s1.4,0.6,1.4,1.3v65.5c0,0.7-0.6,1.3-1.4,1.3
							C250.5,307.6,249.9,307.1,249.9,306.4z"/>
					</g>
					<g>
						<line class="st0" x1="244.3" y1="302.8" x2="244.3" y2="334.2"/>
						<path d="M243.4,334.3l0-31.5c0-0.7,0.6-1.3,1.4-1.3s1.4,0.6,1.4,1.3v31.5c0,0.7-0.6,1.3-1.4,1.3
							C244,335.6,243.4,335,243.4,334.3z"/>
					</g>
					<g>
						<line class="st0" x1="244.3" y1="259.3" x2="244.3" y2="297.2"/>
						<path d="M243.4,297l0-37.3c0-0.7,0.6-1.3,1.4-1.3c0.8,0,1.4,0.6,1.4,1.3l0,37.3c0,0.7-0.6,1.3-1.4,1.3
							C244,298.3,243.4,297.7,243.4,297z"/>
					</g>
					<g>
						<line class="st0" x1="237.9" y1="314.8" x2="237.9" y2="326.8"/>
						<path d="M237,327.2v-13.2c0-0.8,0.6-1.4,1.4-1.4c0.8,0,1.4,0.6,1.4,1.4l0,13.2c0,0.8-0.6,1.4-1.4,1.4
							C237.6,328.6,237,328,237,327.2z"/>
					</g>
					<g>
						<line class="st0" x1="237.9" y1="253.8" x2="237.9" y2="309.2"/>
						<path d="M237,309.6l0-55.6c0-0.7,0.6-1.3,1.4-1.3c0.8,0,1.4,0.6,1.4,1.3l0,55.6c0,0.7-0.6,1.3-1.4,1.3
							C237.6,310.9,237,310.3,237,309.6z"/>
					</g>
				</g>
				<g>
					<g>
						<line class="st0" x1="263.8" y1="395.2" x2="263.8" y2="408.1"/>
						<path d="M265.6,394.4v14.7c0,0.1,0,0.2,0,0.3c-0.1,0.6-0.7,1.1-1.4,1.1c0,0-0.1,0-0.1,0c-0.6,0-1.1-0.5-1.2-1.1
							c0-0.1,0-0.2,0-0.3v-14.7c0-0.8,0.6-1.4,1.4-1.4C265,393,265.6,393.6,265.6,394.4z"/>
					</g>
					<g>
						<line class="st0" x1="263.8" y1="339.7" x2="263.8" y2="387.8"/>
						<path d="M265.6,339.4l0,48.7c0,0.5-0.3,1.1-0.8,1.2c-1,0.4-2-0.3-2-1.2v-48.7c0-0.7,0.6-1.3,1.4-1.3
							C265,338.1,265.6,338.7,265.6,339.4z"/>
					</g>
					<g>
						<line class="st0" x1="257.3" y1="411.8" x2="257.3" y2="414.6"/>
						<path d="M259.1,411.2v3.5c0,0.8-0.6,1.4-1.4,1.4c-0.8,0-1.4-0.6-1.4-1.4v-3.5c0-0.8,0.6-1.4,1.4-1.4
							C258.5,409.8,259.1,410.5,259.1,411.2z"/>
					</g>
					<g>
						<line class="st0" x1="257.3" y1="386.8" x2="257.3" y2="406.2"/>
						<path d="M259.1,385.9v21.6c0,0.8-0.6,1.4-1.4,1.4c-0.8,0-1.4-0.6-1.4-1.4v-21.6c0-0.3,0.1-0.6,0.3-0.9
							c0.3-0.3,0.6-0.5,1.1-0.5C258.5,384.6,259.1,385.2,259.1,385.9z"/>
					</g>
					<g>
						<line class="st0" x1="257.3" y1="336" x2="257.3" y2="381.3"/>
						<path d="M259.1,336.3v44.8c0,0.7-0.6,1.3-1.4,1.3c-0.8,0-1.4-0.6-1.4-1.3v-44.8c0-0.7,0.6-1.3,1.4-1.3
							C258.5,335,259.1,335.6,259.1,336.3z"/>
					</g>
					<g>
						<line class="st0" x1="250.8" y1="325.9" x2="250.8" y2="391.5"/>
						<path d="M252.7,326.1v65.5c0,0.5-0.3,0.9-0.8,1.1c-0.3,0.2-0.7,0.2-1.1,0.1c-0.5-0.1-0.9-0.8-0.9-1.3l0-65.4
							c0-0.7,0.6-1.3,1.4-1.3C252,324.8,252.7,325.4,252.7,326.1z"/>
					</g>
					<g>
						<line class="st0" x1="244.3" y1="387.8" x2="244.3" y2="419.2"/>
						<path d="M246.2,388v31.6c0,0.7-0.6,1.3-1.4,1.3c-0.8,0-1.4-0.6-1.4-1.3V388c0-0.2,0-0.3,0.1-0.5c0.2-0.5,0.7-0.8,1.3-0.8
							c0.5,0,0.9,0.2,1.1,0.5C246.1,387.5,246.2,387.8,246.2,388z"/>
					</g>
					<g>
						<line class="st0" x1="244.3" y1="345.3" x2="244.3" y2="382.2"/>
						<path d="M246.2,344.6V382c0,0.7-0.6,1.3-1.4,1.3c-0.2,0-0.3,0-0.5-0.1h0c-0.5-0.2-0.9-0.6-0.9-1.1c0,0,0-0.1,0-0.1v-37.3
							c0-0.7,0.6-1.3,1.4-1.3C245.6,343.4,246.2,343.9,246.2,344.6z"/>
					</g>
					<g>
						<line class="st0" x1="237.9" y1="399.8" x2="237.9" y2="411.8"/>
						<path d="M239.7,399.3v13.2c0,1-1,1.7-2,1.3c-0.5-0.2-0.8-0.7-0.8-1.2v-13.2c0-0.5,0.3-1,0.8-1.2
							C238.8,397.6,239.7,398.3,239.7,399.3z"/>
					</g>
					<g>
						<line class="st0" x1="237.9" y1="339.7" x2="237.9" y2="395.2"/>
						<path d="M239.7,339.3v55.6c0,0.2-0.1,0.5-0.2,0.7c-0.3,0.4-0.7,0.6-1.2,0.6c-0.8,0-1.4-0.6-1.4-1.3v-55.5
							c0-0.5,0.3-1.1,0.8-1.3C238.8,337.8,239.7,338.4,239.7,339.3z"/>
					</g>
				</g>
				<g>
					<g>
						<path class="st0" d="M246.9,485.1c-2.3,2.9-4.7,5.7-7.5,8.3"/>
						<path d="M252.7,411.3v11.1c-0.2,1.7-0.3,3.5-0.3,5.3c0,0.1,0,0.2,0,0.4c0,0.6-0.1,1.1-0.1,1.7c0,0.7-0.1,1.3-0.1,2
							c0,0.6-0.1,1.3-0.1,1.9c0,0.2,0,0.4,0,0.6c-0.3,3.5-0.7,7.1-1.2,10.6c-0.6,3.7-1.4,7.4-2.4,11c-1.1,3.6-2.3,7.2-3.9,10.6
							c-1.6,3.4-3.4,6.8-5.6,9.9c-4.3,6.3-10.1,11.5-16.7,15.2c-1,0.5-1.3,1.8-0.9,2.7c0.5,1,1.8,1.3,2.8,0.7
							c4.5-2.6,8.7-5.8,12.4-9.5c3.6-3.8,6.7-8,9.2-12.5c0.4-0.7,1.2-1,1.8-0.6c0.6,0.3,0.8,1.1,0.4,1.9c-1.5,2.8-3.3,5.4-5.1,7.9
							l-1.5,1.9l-0.8,0.9l-0.8,0.9l-1.6,1.8l-1.7,1.7l-0.9,0.8l-0.9,0.8l-1.8,1.5c-1.3,0.9-2.5,2-3.9,2.8c-2.6,1.8-5.5,3.2-8.3,4.6
							c-1.1,0.5-1.7,1.7-1.3,2.7c0.4,1,1.7,1.4,2.9,0.9c4.6-2.1,9.1-4.7,13.1-8c4.1-3.2,7.7-7,10.8-11c0.5-0.7,1.4-0.9,1.9-0.5
							c0.6,0.4,0.6,1.3,0.1,2.1c-4.5,5.8-10,11.1-16.3,15.1c-6.2,4.1-13,6.8-19.8,8.7c-6.8,1.8-13.6,2.7-20.2,3.1
							c-1.7,0.1-3.3,0.1-4.9,0.1c-0.8,0-1.7,0-2.6,0c-0.9,0-1.8,0-2.6-0.1c-3.5-0.2-7-0.6-10.4-1.2c-4.7-0.9-8.4-3.6-10.4-7
							c-2-3.4-2.2-7.3-0.7-11c1.5-3.7,4.2-6.4,7.1-8.1c3-1.7,6.1-2.5,9.1-1.9c2.1,0.4,4.2,0.6,6.3,0.8c1.1,0.1,3.2,0.5,3.2,0.5h3.5
							c0,0,9.1-1.2,13.2-2.1c8.4-1.9,15.3-5.6,20.5-11.3c0.3-0.4,1-0.3,1.6,0.2c0.5,0.5,0.7,1.2,0.3,1.6
							c-6.2,6.7-14.8,10.9-24.8,12.6c-0.9,0.2-1.5,1.1-1.3,2.2c0.1,1,0.9,1.7,1.8,1.7c0.1,0,0.2,0,0.3,0c7-1.2,13.6-3.6,19.2-7.3
							c5.6-3.7,10.2-8.7,13.7-14.6c0.3-0.5,1-0.7,1.7-0.3c0.6,0.3,0.9,1.1,0.6,1.6c-1.6,2.7-3.4,5.3-5.5,7.6
							c-2.1,2.3-4.4,4.4-6.8,6.3c-5,3.8-10.8,6.3-16.9,8c-1,0.2-1.6,1.3-1.3,2.3c0.2,0.9,1,1.5,1.9,1.5c0.1,0,0.3,0,0.5-0.1
							c8.2-2.2,15.9-6.1,22.1-11.8c6.2-5.7,10.8-13.1,13.8-20.9c3.1-7.9,4.7-16.4,5.6-24.9c0.1-0.9,0.2-1.9,0.2-2.8
							c0.1-1.5,0.2-3.1,0.3-4.6c0-0.7,0.1-1.4,0.1-2c0-0.7,0-1.4,0.1-2.1c0-0.4,0-0.9-0.9-1.3l0.9-5.4v-2.2v-2.2v-3.2
							c0-0.7,0.6-1.3,1.3-1.3S252.4,410.6,252.7,411.3z"/>
					</g>
					<g>
						<path class="st0" d="M264.1,424.7c-0.1,4.4-0.3,8.8-0.7,13.2c-0.5,4.4-1.1,8.9-2,13.4c-1.9,9-4.8,18.1-9.8,26.7"/>
						<path d="M265.4,424.7c0,0.2,0,0.4,0,0.6c0,0.8,0,1.7-0.1,2.5c0,0.7,0,1.3-0.1,2c0,0.6-0.1,1.3-0.1,1.9c0,0.7-0.1,1.4-0.1,2.1
							c0,0.2,0,0.3,0,0.5c0,0.7-0.1,1.3-0.1,2c0,0.4-0.1,0.8-0.1,1.3c0,0.2,0,0.4,0,0.6c0,0.4-0.1,0.8-0.1,1.3
							c-0.1,0.6-0.1,1.2-0.2,1.8c0,0.4-0.1,0.7-0.1,1.1c-0.4,3.1-0.9,6.2-1.5,9.4c-1.9,9.1-4.8,18.3-10,27.1
							c-0.4,0.8-1.3,1.1-1.9,0.7c-0.6-0.4-0.7-1.2-0.3-2c4.9-8.4,7.8-17.5,9.7-26.3c0.8-3.9,1.3-7.8,1.8-11.6
							c0.1-0.5,0.1-1.1,0.2-1.6c0-0.1,0-0.1,0-0.2c0.1-0.6,0.1-1.2,0.1-1.9c0-0.5,0.1-1,0.1-1.5c0-0.2,0-0.4,0-0.6
							c0.1-1.3,0.2-2.6,0.2-3.9c0-0.7,0.1-1.3,0.1-2c0-0.7,0-1.3,0-2c0-0.2,0-0.4,0-0.7c0-0.2,0-0.3,0-0.5c0-0.8,0.6-1.4,1.3-1.4
							C264.8,423.3,265.4,424,265.4,424.7z"/>
					</g>
					<g>
						<path class="st0" d="M246.7,473.6c-1.7,3.2-3.8,6.3-6.2,9.2c-2.4,2.9-5,5.6-7.9,7.9"/>
					</g>
					<g>
						<path class="st0" d="M257.6,421.5c0,1.8,0,3.8-0.1,5.8c0,1.9-0.2,3.9-0.3,5.8c-0.3,3.9-0.6,7.8-1.3,11.7
							c-0.6,3.9-1.4,7.8-2.5,11.7c-1.1,3.9-2.4,7.7-4,11.4"/>
						<path d="M258.3,420.4c0.5,0.2,0.8,0.7,0.8,1.3l0,1c0,0.7,0,1.4,0,2.1c0,0.7,0,1.3-0.1,2c0,0.2,0,0.4,0,0.6
							c-0.1,1.8-0.2,3.7-0.3,5.5c0,0.1,0,0.2,0,0.4c0,0.4-0.1,0.7-0.1,1.1c0,0.2,0,0.4-0.1,0.5c-0.1,0.6-0.1,1.3-0.2,1.9
							c-0.3,2.8-0.6,5.6-1.1,8.3c-0.7,3.9-1.5,7.9-2.7,11.8c-1.2,3.9-2.6,7.8-4.4,11.6c-0.3,0.7-1.2,1.1-1.9,0.8
							c-0.7-0.3-1-1.1-0.7-1.8c1.8-3.7,3.2-7.5,4.3-11.3c1.2-3.8,2-7.7,2.7-11.5c0.6-3.3,0.9-6.6,1.2-9.8c0-0.2,0-0.4,0.1-0.5
							c0-0.4,0.1-0.8,0.1-1.2c0,0,0-0.1,0-0.1c0-0.6,0.1-1.3,0.1-1.9c0.1-1.2,0.1-2.5,0.2-3.7c0-0.9,0-1.7,0.1-2.6
							c0-0.7,0-1.4,0-2.1v-1.1c0-0.3,0.1-0.6,0.3-0.8C257,420.3,257.7,420.1,258.3,420.4z"/>
					</g>
					<g>
						<path class="st0" d="M251.2,411.3c0,6.6,0.1,13.3-0.3,19.9c-0.4,6.6-1.2,13.2-2.7,19.7c-1.5,6.5-3.6,12.8-6.7,18.7
							c-3.1,5.8-7.2,11.2-12.3,15.5"/>
					</g>
					<g>
						<path class="st0" d="M234.8,468.3c-2.3,4.1-5.2,7.7-8.6,10.8"/>
					</g>
					<g>
						<path class="st0" d="M244.5,429.8c-0.3,5.9-1,11.8-2.1,17.5c-1.2,5.7-2.9,11.2-5.2,16.3"/>
						<path d="M245.7,429.9c-0.1,1.5-0.2,2.9-0.3,4.4c-0.4,4.5-1,9-1.8,13.4c-1.2,5.8-2.9,11.4-5.3,16.6c-0.3,0.6-1,0.8-1.7,0.5
							c-0.6-0.3-0.9-1-0.6-1.6c2.3-5,4-10.4,5.1-16c0.8-4.2,1.4-8.5,1.8-12.9c0.1-1.5,0.2-3,0.3-4.5c0-0.7,0.6-1.2,1.3-1.2
							C245.2,428.6,245.8,429.2,245.7,429.9z"/>
					</g>
					<g>
						<path class="st0" d="M223.9,472.2c-1.6,1.7-3.3,3.3-5.2,4.6c-1.9,1.4-3.9,2.6-6.1,3.6c-2.2,1-4.4,1.9-6.9,2.6
							c-1.2,0.4-2.5,0.7-3.7,1c-0.6,0.1-1.3,0.2-1.9,0.4c-0.6,0.1-1.3,0.3-1.9,0.3"/>
					</g>
					<g>
						<path class="st0" d="M238.2,424.4c0,4.2-0.3,8.5-0.8,12.6c-0.4,4.1-1.1,8.2-2.1,12.1c-1.9,7.7-4.8,14.8-9.1,20.3"/>
						<path d="M239.4,424.4c0,3.3-0.2,6.6-0.5,9.8c-0.1,1-0.2,1.9-0.3,2.9c-0.5,4.2-1.1,8.3-2.1,12.2c-1.9,7.9-4.9,15.1-9.3,20.8
							c-0.3,0.4-1.1,0.4-1.6,0c-0.6-0.5-0.7-1.1-0.4-1.5c4.1-5.4,7-12.3,8.9-19.9c0.9-3.8,1.6-7.8,2-11.9c0.1-0.9,0.2-1.7,0.2-2.6
							c0.3-3.3,0.5-6.6,0.5-9.9c0-0.6,0.6-1.1,1.3-1.2C238.9,423.2,239.4,423.8,239.4,424.4z"/>
					</g>
				</g>
			</g>
			<path d="M265.6,83.6v48.7c0,0.7-0.6,1.3-1.4,1.3c-0.8,0-1.4-0.6-1.4-1.3v-12c0-1.1-0.9-2.1-2.1-2c-0.4,0-0.8,0.2-1.1,0.5
				c-0.3,0.3-0.5,0.8-0.5,1.3v5.1c0,0.8-0.6,1.4-1.4,1.4s-1.4-0.6-1.4-1.4V124c0-1.1-0.9-2.1-2.1-2c-0.4,0-0.8,0.2-1.1,0.5
				c-0.3,0.3-0.5,0.8-0.5,1.3v12.2c0,0.7-0.6,1.2-1.4,1.2c-0.1,0-0.1,0-0.2,0c-0.7-0.1-1.2-0.6-1.2-1.2v-9.6c0-1.1-0.9-2-2-2h0.2
				c-1.1,0-1.9,0.9-1.9,1.9v0.3c0,0.7-0.6,1.3-1.4,1.3c-0.8,0-1.4-0.6-1.4-1.3v-5.1c0-0.9-0.6-1.8-1.6-2c-1.1-0.2-2.1,0.7-2.1,1.8
				v17.8c0,0.7-0.6,1.3-1.4,1.3c-0.8,0-1.4-0.6-1.4-1.3V83.6c0-0.7,0.6-1.3,1.4-1.3c0.8,0,1.4,0.6,1.4,1.3v11c0,1,0.8,1.8,1.8,1.8
				s1.9-0.8,1.9-1.8v-5.8c0-0.5,0.3-1.1,0.8-1.2c1-0.4,2,0.3,2,1.2v0.5c0,1.1,0.9,2,2,2h-0.2c1.1,0,2-0.9,2-2V69.5
				c0-0.7,0.6-1.3,1.4-1.3c0.8,0,1.4,0.6,1.4,1.3v23.4c0,1.1,0.9,2,2,2h0.2c0.8,0,1.5-0.7,1.5-1.5V80.1c0-0.4,0.2-0.7,0.5-0.9
				c1.1-0.7,2.3,0,2.3,1v16.7c0,1.1,0.9,2.1,2.1,2c0.4,0,0.8-0.2,1.1-0.5c0.3-0.3,0.5-0.8,0.5-1.3V83.7c0-0.5,0.3-1.1,0.8-1.3
				C264.6,82.1,265.6,82.8,265.6,83.6z"/>
		</g>
		<g>
			<path class="st0" d="M263.5,26.5c0-0.1,0-0.2,0-0.3c0-0.2,0-0.4,0-0.5c0-0.2,0-0.4-0.1-0.5c-0.1-0.8-0.2-1.5-0.5-2.2
				c-0.1-0.2-0.1-0.4-0.2-0.5c0-0.1,0-0.1-0.1-0.2c-0.3-0.8-0.8-1.6-1.3-2.4c0-0.1-0.1-0.1-0.1-0.2c-0.2-0.3-0.4-0.6-0.7-0.8
				c-0.1-0.1-0.3-0.3-0.4-0.5c-0.1-0.1-0.2-0.2-0.3-0.3c-0.2-0.2-0.4-0.4-0.6-0.5c-0.1-0.1-0.3-0.2-0.4-0.4
				c-0.2-0.2-0.5-0.4-0.7-0.5c-0.1-0.1-0.2-0.2-0.3-0.2c-0.1-0.1-0.2-0.1-0.3-0.2c-0.1-0.1-0.3-0.2-0.4-0.2
				c-0.1-0.1-0.3-0.1-0.4-0.2c-0.3-0.1-0.5-0.3-0.8-0.4c-0.2-0.1-0.4-0.1-0.6-0.2c-0.1,0-0.3-0.1-0.4-0.1c-0.7-0.2-1.5-0.4-2.3-0.5
				c-0.1,0-0.1,0-0.2,0c-0.4,0-0.9-0.1-1.3-0.1c-0.5,0-0.9,0-1.4,0.1c-0.1,0-0.1,0-0.2,0c-0.2,0-0.5,0.1-0.7,0.1c0,0-0.1,0-0.1,0
				c-0.3,0-0.5,0.1-0.8,0.2c-0.2,0-0.3,0.1-0.5,0.1c-0.2,0.1-0.5,0.1-0.7,0.2c-0.1,0-0.3,0.1-0.4,0.1c-0.6,0.2-1.1,0.5-1.7,0.9
				c-0.3,0.2-0.6,0.4-0.8,0.6c-0.2,0.1-0.4,0.3-0.6,0.4c-0.1,0.1-0.3,0.2-0.4,0.4c-0.2,0.2-0.5,0.4-0.7,0.6
				c-0.3,0.3-0.5,0.5-0.7,0.8c-0.2,0.2-0.3,0.4-0.5,0.7c0,0.1-0.1,0.1-0.1,0.2c-0.5,0.7-0.9,1.6-1.3,2.4c-0.1,0.1-0.1,0.2-0.1,0.4
				c-0.1,0.2-0.1,0.4-0.2,0.6c-0.1,0.2-0.1,0.4-0.2,0.6c0,0.2-0.1,0.4-0.1,0.6c0,0.2-0.1,0.4-0.1,0.6c0,0.2,0,0.3-0.1,0.5
				c0,0.2,0,0.5-0.1,0.7c0,0.2,0,0.4,0,0.7c0,0.2,0,0.5,0,0.7c0,0.2,0,0.3,0,0.5c0,0.1,0,0.2,0,0.3c0,0.3,0.1,0.5,0.1,0.8
				c0,0.2,0.1,0.4,0.1,0.6c0,0,0,0,0,0c0,0,0,0.1,0,0.1c0,0.2,0.1,0.3,0.1,0.5c0,0.2,0.1,0.4,0.2,0.5c0,0.1,0.1,0.3,0.1,0.4
				c0,0.1,0.1,0.2,0.1,0.3c0.1,0.3,0.3,0.6,0.4,1c0,0.1,0.1,0.1,0.1,0.2c0.4,0.8,0.9,1.5,1.5,2.2c0,0,0.1,0.1,0.1,0.1
				c0.2,0.2,0.3,0.4,0.5,0.6c0,0,0.1,0.1,0.1,0.1c1.5,1.5,3.2,2.5,5.2,3c0.2,0.1,0.4,0.1,0.7,0.2c0.2,0,0.4,0.1,0.6,0.1
				c0.2,0,0.4,0.1,0.6,0.1c0.2,0,0.4,0.1,0.6,0.1c0.3,0,0.6,0,0.8,0c0.1,0,0.1,0,0.2,0c3.4,0,6.4-1.2,8.8-3.6c0.5-0.5,1-1.1,1.4-1.7
				c0.2-0.2,0.3-0.5,0.5-0.8c0.1-0.2,0.2-0.3,0.3-0.5c0.1-0.3,0.3-0.5,0.4-0.8c0,0,0-0.1,0-0.1c0.1-0.3,0.2-0.5,0.3-0.8
				c0.1-0.2,0.1-0.3,0.2-0.5c0.1-0.3,0.1-0.5,0.2-0.8c0-0.2,0.1-0.3,0.1-0.5c0-0.2,0.1-0.5,0.1-0.7c0-0.1,0-0.2,0-0.4
				c0,0,0-0.1,0-0.1c0-0.2,0-0.4,0-0.6c0-0.2,0-0.4,0-0.6C263.5,26.7,263.5,26.6,263.5,26.5z"/>
			<g>
				<g>
					<g>
						<g>
							<path class="st0" d="M236.8,38.5c-0.7-0.8-1.3-1.7-1.8-2.6"/>
							<path d="M235.5,35.6c0.5,0.9,1.1,1.8,1.7,2.5c0.1,0.1,0,0.4-0.3,0.6c-0.3,0.2-0.5,0.3-0.7,0.2c-0.7-0.8-1.3-1.7-1.9-2.7
								c-0.1-0.2,0.1-0.4,0.4-0.6C235.1,35.5,235.4,35.4,235.5,35.6z"/>
						</g>
						<g>
							<path class="st0" d="M239.6,41.3c-0.6-0.5-1.2-1-1.8-1.6"/>
							<path class="st0" d="M247.8,45c-0.9-0.2-1.8-0.4-2.7-0.7"/>
						</g>
						<g>
							<path class="st0" d="M237.4,33.9c-0.1-0.2-0.2-0.4-0.3-0.6"/>
							<path d="M237.6,33c0.1,0.2,0.2,0.4,0.3,0.5c0.1,0.1-0.1,0.3-0.4,0.5c-0.3,0.2-0.6,0.2-0.6,0c-0.1-0.2-0.2-0.4-0.3-0.6
								c-0.1-0.1,0.1-0.4,0.4-0.5C237.3,32.9,237.6,32.9,237.6,33z"/>
						</g>
						<g>
							<path class="st0" d="M240.2,37.7c-0.9-0.9-1.7-1.9-2.4-3"/>
							<path d="M238.3,34.4c0.6,1.1,1.4,2.1,2.3,2.9c0.1,0.1,0,0.4-0.3,0.6c-0.2,0.2-0.5,0.4-0.6,0.3c-0.9-0.9-1.8-2-2.5-3.2
								c-0.1-0.1,0.1-0.4,0.4-0.5C238,34.3,238.3,34.2,238.3,34.4z"/>
						</g>
						<g>
							<path class="st0" d="M241.5,38.9c-0.2-0.1-0.3-0.3-0.5-0.4"/>
							<path class="st0" d="M248.9,42.1c-1-0.1-1.9-0.3-2.8-0.7"/>
						</g>
						<g>
							<path class="st0" d="M243.2,36.3c-0.5-0.4-0.9-0.8-1.3-1.3"/>
							<path class="st0" d="M251,39.2c-1.1,0-2.2-0.2-3.3-0.5"/>
						</g>
						<g>
							<path class="st0" d="M244.4,33.3c-0.9-0.9-1.6-2-2-3.1"/>
							<path d="M243,30c0.4,1.1,1,2,1.9,2.9c0.1,0.1-0.1,0.3-0.3,0.5c-0.2,0.2-0.5,0.4-0.5,0.3c-1-1-1.7-2.1-2.1-3.3
								c0-0.1,0.2-0.2,0.5-0.4C242.7,29.9,243,29.9,243,30z"/>
						</g>
						<g>
							<line class="st0" x1="245.2" y1="33.9" x2="245" y2="33.8"/>
							<path class="st0" d="M248.8,35.8c-0.2-0.1-0.5-0.1-0.7-0.2"/>
						</g>
						<g>
							<path class="st0" d="M246,30.4c-0.2-0.3-0.3-0.5-0.5-0.8"/>
							<path d="M246.1,29.3c0.1,0.2,0.3,0.5,0.4,0.7c0,0-0.2,0.2-0.4,0.4c-0.3,0.2-0.5,0.3-0.5,0.3c-0.2-0.3-0.4-0.6-0.5-0.9
								c0-0.1,0.2-0.2,0.5-0.4C245.8,29.4,246,29.3,246.1,29.3z"/>
						</g>
						<g>
							<path class="st0" d="M247.3,31.7c-0.4-0.3-0.8-0.7-1.1-1"/>
							<path class="st0" d="M249.9,32.9c-0.3-0.1-0.6-0.1-0.9-0.2"/>
						</g>
					</g>
					<g>
						<g>
							<path class="st0" d="M234.1,19.5c0.4-1,0.9-2,1.5-2.8"/>
							<path d="M236.1,17c-0.6,0.9-1.1,1.8-1.5,2.8c-0.1,0.1-0.4,0.2-0.7,0c-0.3-0.1-0.5-0.4-0.4-0.5c0.4-1,1-2,1.6-2.9
								c0.1-0.1,0.4-0.1,0.7,0.1C236,16.6,236.2,16.9,236.1,17z"/>
						</g>
						<g>
							<path class="st0" d="M233.4,32.3c-0.6-1.9-0.8-3.8-0.8-5.6c0-1.8,0.3-3.7,0.9-5.6"/>
							<path d="M234.1,21.3c-0.6,1.8-0.8,3.7-0.8,5.4c0,1.8,0.2,3.6,0.8,5.4c0,0.2-0.2,0.4-0.5,0.5c-0.3,0.1-0.6,0.1-0.7-0.1
								c-0.6-1.9-0.8-3.9-0.8-5.8c0-1.9,0.3-3.9,0.9-5.8c0.1-0.2,0.4-0.2,0.7-0.1C233.9,20.9,234.1,21.1,234.1,21.3z"/>
						</g>
						<g>
							<path class="st0" d="M238.5,17.9c0.1-0.2,0.2-0.3,0.4-0.5"/>
							<path d="M239.3,17.8c-0.1,0.2-0.2,0.3-0.4,0.5c-0.1,0.1-0.4,0-0.6-0.1c-0.3-0.2-0.4-0.4-0.3-0.6c0.1-0.2,0.3-0.4,0.4-0.5
								c0.1-0.1,0.4,0,0.6,0.2C239.3,17.4,239.4,17.7,239.3,17.8z"/>
						</g>
						<g>
							<path class="st0" d="M236.4,22.3c0.4-1.3,0.9-2.5,1.6-3.6"/>
							<path d="M238.5,19c-0.7,1.1-1.2,2.2-1.6,3.4c0,0.1-0.3,0.2-0.6,0.1c-0.3-0.1-0.5-0.3-0.5-0.4c0.4-1.3,1-2.6,1.7-3.7
								c0.1-0.1,0.4-0.1,0.6,0.1C238.4,18.6,238.6,18.9,238.5,19z"/>
						</g>
						<g>
							<path class="st0" d="M236.6,32c-0.5-1.4-0.8-2.9-0.8-4.3c-0.1-1.4,0-2.9,0.3-4.3"/>
							<path d="M236.7,23.5c-0.3,1.4-0.4,2.8-0.3,4.2c0.1,1.4,0.3,2.8,0.8,4.1c0,0.1-0.2,0.3-0.5,0.4c-0.3,0.1-0.6,0.1-0.7,0
								c-0.5-1.5-0.8-3-0.9-4.5c-0.1-1.5,0-3,0.4-4.5c0-0.1,0.3-0.2,0.6-0.1C236.5,23.2,236.7,23.4,236.7,23.5z"/>
						</g>
						<g>
							<path class="st0" d="M240.1,32.4c-0.8-1.5-1.2-3.2-1.3-5c-0.1-1.7,0.1-3.5,0.7-5.1"/>
							<path d="M240.1,22.6c-1.1,3.1-1,6.6,0.5,9.5c0,0.1-0.2,0.3-0.4,0.5s-0.6,0.2-0.6,0.1c-0.8-1.6-1.3-3.4-1.4-5.2
								c-0.1-1.8,0.1-3.6,0.8-5.3c0-0.1,0.3-0.1,0.6,0S240.1,22.5,240.1,22.6z"/>
						</g>
						<g>
							<path class="st0" d="M242.3,23.9c0.4-1.2,1-2.2,1.8-3.2"/>
							<path d="M244.6,21.1c-0.8,0.9-1.4,1.9-1.7,3c0,0.1-0.3,0.1-0.6,0c-0.3-0.1-0.6-0.2-0.5-0.3c0.4-1.2,1.1-2.4,2-3.4
								c0.1-0.1,0.3,0.1,0.6,0.3C244.5,20.8,244.6,21,244.6,21.1z"/>
						</g>
						<g>
							<path class="st0" d="M242.1,29c-0.3-1.4-0.3-3.1,0-4.5"/>
							<path d="M242.7,24.7c-0.3,1.3-0.3,2.9,0,4.2c0,0.1-0.2,0.2-0.6,0.3c-0.3,0.1-0.6,0.1-0.6,0c-0.3-1.5-0.3-3.2,0-4.7
								c0-0.1,0.3-0.1,0.6,0C242.5,24.5,242.7,24.6,242.7,24.7z"/>
						</g>
						<g>
							<path class="st0" d="M245.5,24c0.1-0.3,0.3-0.5,0.5-0.8"/>
							<path d="M246.5,23.6c-0.2,0.2-0.3,0.5-0.4,0.7c0,0-0.3,0-0.6-0.2c-0.3-0.1-0.5-0.3-0.5-0.4c0.2-0.3,0.3-0.6,0.5-0.9
								c0-0.1,0.3,0.1,0.5,0.3C246.3,23.3,246.5,23.5,246.5,23.6z"/>
						</g>
						<g>
							<path class="st0" d="M245.2,28.7c-0.2-0.7-0.3-1.4-0.3-2.3c0-0.8,0.2-1.5,0.5-2.1"/>
							<path d="M245.9,24.6c-0.2,0.6-0.4,1.2-0.4,1.9c0,0.8,0.1,1.5,0.2,2.1c0,0-0.2,0.2-0.5,0.3c-0.3,0.1-0.6,0.1-0.6,0.1
								c-0.2-0.7-0.3-1.6-0.3-2.5c0-0.9,0.2-1.6,0.5-2.3c0-0.1,0.3,0,0.6,0.1C245.7,24.4,245.9,24.5,245.9,24.6z"/>
						</g>
					</g>
					<g>
						<g>
							<path class="st0" d="M249.6,8.3c1-0.1,2-0.1,3.1,0"/>
							<path d="M252.6,8.9c-1-0.1-2-0.1-3,0c-0.2,0-0.3-0.2-0.3-0.6c0-0.3,0.1-0.6,0.2-0.6c1.1-0.1,2.1-0.1,3.2,0
								c0.2,0,0.3,0.3,0.2,0.6C252.9,8.7,252.8,9,252.6,8.9z"/>
						</g>
						<g>
							<path class="st0" d="M238,13.8c1.3-1.3,2.8-2.5,4.5-3.4c1.7-0.9,3.6-1.5,5.5-1.8"/>
							<path d="M248.1,9.1c-1.8,0.3-3.7,0.9-5.3,1.8c-1.7,0.9-3.2,2-4.4,3.3c-0.1,0.1-0.4,0-0.6-0.2c-0.2-0.2-0.3-0.5-0.2-0.6
								c1.3-1.3,2.9-2.6,4.7-3.5c1.8-0.9,3.7-1.6,5.7-1.9c0.2,0,0.3,0.2,0.4,0.5C248.4,8.8,248.3,9.1,248.1,9.1z"/>
						</g>
						<g>
							<path class="st0" d="M253,11.5c0.2,0,0.4,0,0.6,0.1"/>
							<path d="M253.5,12.1c-0.2,0-0.4-0.1-0.6-0.1c-0.1,0-0.2-0.3-0.2-0.6c0-0.3,0.2-0.6,0.3-0.6c0.2,0,0.4,0,0.6,0.1
								c0.1,0,0.2,0.3,0.2,0.6C253.8,11.9,253.7,12.2,253.5,12.1z"/>
						</g>
						<g>
							<path class="st0" d="M248.3,11.6c1.3-0.2,2.6-0.3,3.8-0.2"/>
							<path d="M252.1,12c-1.2-0.1-2.5,0-3.7,0.2c-0.1,0-0.3-0.2-0.4-0.5c-0.1-0.3,0-0.6,0.1-0.6c1.3-0.2,2.7-0.3,4-0.2
								c0.1,0,0.2,0.3,0.2,0.6C252.3,11.7,252.2,12,252.1,12z"/>
						</g>
						<g>
							<path class="st0" d="M239.7,16.4c1.9-2.1,4.5-3.8,7.4-4.5"/>
							<path d="M247.3,12.4c-2.8,0.7-5.3,2.3-7.1,4.3c-0.1,0.1-0.4,0-0.6-0.2c-0.2-0.2-0.4-0.5-0.3-0.6c2-2.2,4.7-3.9,7.7-4.7
								c0.1,0,0.3,0.2,0.4,0.5C247.5,12.1,247.5,12.4,247.3,12.4z"/>
						</g>
						<g>
							<path class="st0" d="M241,19.7c1-1.4,2.3-2.6,3.7-3.5c1.5-0.9,3.1-1.5,4.8-1.7"/>
							<path d="M249.6,15.1c-1.6,0.2-3.2,0.7-4.6,1.6c-1.4,0.9-2.6,2-3.6,3.3c-0.1,0.1-0.3,0-0.6-0.2c-0.3-0.2-0.4-0.4-0.4-0.5
								c1.1-1.5,2.4-2.7,3.9-3.7c1.5-1,3.3-1.5,5.1-1.8c0.1,0,0.2,0.2,0.3,0.6C249.8,14.8,249.7,15.1,249.6,15.1z"/>
						</g>
						<g>
							<path class="st0" d="M249.5,17.6c1.2-0.2,2.6-0.2,3.8,0.1"/>
							<path d="M253.2,18.3c-1.1-0.2-2.4-0.3-3.6-0.1c-0.1,0-0.2-0.2-0.2-0.6c-0.1-0.3,0-0.6,0.1-0.6c1.3-0.2,2.7-0.2,4,0.1
								c0.1,0,0.1,0.3,0,0.6C253.4,18.1,253.2,18.3,253.2,18.3z"/>
						</g>
						<g>
							<path class="st0" d="M245,19.8c1.1-1,2.4-1.7,3.8-2"/>
							<path d="M249,18.3c-1.3,0.3-2.5,0.9-3.6,1.9c-0.1,0.1-0.3-0.1-0.5-0.3c-0.2-0.2-0.4-0.5-0.3-0.6c1.2-1.1,2.6-1.8,4.1-2.2
								c0.1,0,0.2,0.2,0.3,0.6C249.1,18,249.1,18.3,249,18.3z"/>
						</g>
						<g>
							<path class="st0" d="M251,20.6c0.4,0,0.7,0,1,0"/>
							<path d="M252,21.2c-0.3,0-0.6-0.1-1,0c-0.1,0-0.1-0.3-0.1-0.6c0-0.3,0-0.6,0.1-0.6c0.4,0,0.8,0,1.1,0.1c0.1,0,0.1,0.3,0,0.6
								C252.1,20.9,252,21.2,252,21.2z"/>
						</g>
						<g>
							<path class="st0" d="M246.7,22.4c1.2-1.2,2.3-1.7,3.9-1.8"/>
							<path d="M250.6,21.2c-1.4,0.1-2.4,0.6-3.5,1.7c0,0-0.3-0.1-0.5-0.3c-0.2-0.2-0.4-0.5-0.4-0.5c1.3-1.3,2.5-1.9,4.2-2
								c0.1,0,0.1,0.3,0.2,0.6C250.7,20.9,250.7,21.2,250.6,21.2z"/>
						</g>
					</g>
					<g>
						<g>
							<path class="st0" d="M266.7,16.7c0.6,0.9,1.1,1.8,1.5,2.8"/>
							<path d="M267.7,19.8c-0.4-1-0.9-1.9-1.5-2.7c-0.1-0.1,0.1-0.4,0.3-0.6c0.3-0.2,0.6-0.2,0.7-0.1c0.6,0.9,1.1,1.9,1.6,2.9
								c0.1,0.2-0.1,0.4-0.4,0.5C268,19.9,267.7,19.9,267.7,19.8z"/>
						</g>
						<g>
							<path class="st0" d="M256.4,9c1.9,0.5,3.7,1.4,5.2,2.5c1.6,1.1,2.9,2.4,4.1,3.8"/>
							<path d="M265.3,15.7c-1.1-1.4-2.4-2.7-4-3.7c-1.5-1.1-3.3-1.9-5.1-2.4c-0.2,0-0.2-0.3-0.1-0.7c0.1-0.3,0.3-0.5,0.5-0.5
								c1.9,0.6,3.8,1.5,5.4,2.6c1.6,1.1,3,2.4,4.2,4c0.1,0.1,0,0.4-0.3,0.6C265.7,15.8,265.4,15.9,265.3,15.7z"/>
						</g>
						<g>
							<path class="st0" d="M265.6,21.3c0.1,0.2,0.1,0.4,0.2,0.6"/>
							<path d="M265.3,22.1c-0.1-0.2-0.1-0.4-0.2-0.6c0-0.1,0.2-0.3,0.5-0.4c0.3-0.1,0.6-0.1,0.7,0c0.1,0.2,0.2,0.4,0.2,0.6
								c0,0.1-0.2,0.3-0.5,0.4C265.6,22.2,265.3,22.2,265.3,22.1z"/>
						</g>
						<g>
							<path class="st0" d="M263.2,17.1c0.8,1,1.5,2.1,2.1,3.3"/>
							<path d="M264.7,20.7c-0.5-1.2-1.2-2.2-2-3.2c-0.1-0.1,0.1-0.4,0.3-0.6c0.3-0.2,0.5-0.3,0.6-0.2c0.8,1,1.6,2.2,2.2,3.5
								c0.1,0.1-0.1,0.3-0.4,0.5C265.1,20.8,264.8,20.8,264.7,20.7z"/>
						</g>
						<g>
							<path class="st0" d="M255,11.8c2.9,0.7,5.5,2.4,7.5,4.4"/>
							<path d="M262,16.7c-1.9-2-4.4-3.6-7.2-4.3c-0.1,0-0.2-0.3-0.1-0.6c0.1-0.3,0.2-0.6,0.4-0.5c3,0.7,5.8,2.5,7.8,4.6
								c0.1,0.1,0,0.4-0.3,0.6C262.4,16.7,262.1,16.8,262,16.7z"/>
						</g>
						<g>
							<path class="st0" d="M252.7,14.5c1.7,0.2,3.4,0.7,4.9,1.6c1.5,0.9,2.7,2.1,3.8,3.5"/>
							<path d="M260.8,20c-1-1.3-2.2-2.5-3.6-3.3c-1.4-0.9-3-1.4-4.6-1.6c-0.1,0-0.2-0.3-0.1-0.6c0-0.3,0.2-0.6,0.3-0.6
								c1.8,0.2,3.6,0.8,5.1,1.7c1.5,0.9,2.9,2.2,3.9,3.7c0.1,0.1-0.1,0.3-0.4,0.5C261.1,20,260.9,20.1,260.8,20z"/>
						</g>
						<g>
							<path class="st0" d="M258.5,21.1c0.8,1,1.3,2.1,1.6,3.3"/>
							<path d="M259.6,24.5c-0.3-1.1-0.8-2.1-1.5-3c0-0.1,0.1-0.3,0.4-0.5c0.3-0.2,0.5-0.3,0.6-0.3c0.8,1,1.4,2.2,1.7,3.5
								c0,0.1-0.2,0.2-0.5,0.3C259.9,24.6,259.6,24.6,259.6,24.5z"/>
						</g>
						<g>
							<path class="st0" d="M254.5,18.1c1.3,0.5,2.6,1.4,3.6,2.5"/>
							<path d="M257.6,21c-1-1.1-2.1-1.9-3.4-2.3c-0.1,0,0-0.3,0.1-0.6c0.1-0.3,0.3-0.5,0.3-0.5c1.4,0.5,2.7,1.5,3.8,2.7
								c0.1,0.1-0.1,0.3-0.3,0.5C257.9,20.9,257.7,21,257.6,21z"/>
						</g>
						<g>
							<path class="st0" d="M256.7,23.8c0.1,0.3,0.3,0.5,0.4,0.8"/>
							<path d="M256.5,24.8c-0.1-0.3-0.2-0.5-0.3-0.7c0,0,0.2-0.2,0.5-0.4c0.3-0.2,0.5-0.3,0.6-0.2c0.2,0.3,0.3,0.6,0.4,0.9
								c0,0.1-0.2,0.2-0.5,0.3C256.8,24.8,256.5,24.8,256.5,24.8z"/>
						</g>
						<g>
							<path class="st0" d="M253,20.8c0.7,0.2,1.3,0.5,1.9,1c0.6,0.5,1.2,1.1,1.6,1.7"/>
							<path d="M256,23.8c-0.3-0.5-0.9-1.1-1.4-1.5c-0.5-0.4-1.1-0.7-1.7-0.9c0,0,0-0.3,0.1-0.6c0.1-0.3,0.2-0.6,0.3-0.6
								c0.7,0.2,1.4,0.6,2.1,1.1c0.7,0.5,1.3,1.2,1.7,1.8c0,0.1-0.2,0.2-0.4,0.4C256.2,23.7,256,23.8,256,23.8z"/>
						</g>
					</g>
					<g>
						<g>
							<path class="st0" d="M267.3,35.9c-0.3,0.6-0.7,1.2-1.1,1.8"/>
							<path d="M251.2,39.2L251.2,39.2c0-1.9,0.2-3.6,0.4-4.8c0.2-1.2,0.4-2,0.7-2.1c0.8-0.1,1.4-0.4,2-0.8c0.6-0.4,1.3-1.1,1.7-1.7
								c0,0,0.3,0.1,0.6,0.2c0.3,0.2,0.5,0.4,0.4,0.4c-0.5,0.8-1.5,1.7-2.3,2.2c-0.1,0,0.1,0.4,0.3,0.9c0.3,0.4,0.6,0.8,0.7,0.7
								c0.7-0.5,1.4-1.1,2.1-1.7c0.6-0.7,1.1-1.4,1.4-2.2c0-0.1,0.3,0,0.6,0.1c0.3,0.1,0.5,0.3,0.5,0.4c-0.7,1.6-1.9,3-3.3,4
								c-0.1,0.1,0,0.5,0.3,0.9c0.3,0.4,0.6,0.7,0.8,0.6c2.1-1.5,3.7-3.7,4.5-6.2c0.7-2.5,0.6-5.2-0.3-7.6c0-0.1,0.2-0.3,0.5-0.4
								c0.3-0.1,0.6-0.1,0.6,0c0.9,2.3,1,4.8,0.6,7.2c-0.4,2.4-1.7,4.7-3.4,6.4c-0.1,0.1,0.1,0.5,0.4,0.9c0.4,0.4,0.8,0.5,0.9,0.4
								c1.2-1.3,2.3-2.8,3-4.4c0.1-0.1,0.3-0.1,0.7,0c0.3,0.1,0.5,0.3,0.5,0.5c-0.9,2.1-2.3,4-3.9,5.5c-0.2,0.1,0,0.6,0.3,1
								c0.3,0.4,0.8,0.6,0.9,0.4c1.3-1.2,2.6-2.7,3.5-4.4c0.1-0.1,0.4-0.1,0.7,0c0.3,0.2,0.5,0.4,0.4,0.6c-0.7,1.2-1.5,2.4-2.5,3.4
								c-0.9,1-1.9,1.9-3,2.8c-2.3,1.7-5.1,2.9-7.8,3.3c-1,0.2-1.9-0.5-2.5-1.7C251.4,42.7,251.2,41,251.2,39.2z"/>
						</g>
						<g>
							<path class="st0" d="M269.3,23.2c0.3,1.9,0.4,3.7,0.2,5.6c-0.2,1.9-0.7,3.8-1.5,5.6"/>
							<path d="M267.5,34.1c0.8-1.7,1.2-3.6,1.4-5.4c0.2-1.8,0.1-3.6-0.2-5.4c0-0.2,0.2-0.3,0.5-0.4c0.3-0.1,0.6,0,0.7,0.2
								c0.4,2,0.4,3.8,0.2,5.8c-0.2,1.9-0.7,3.9-1.5,5.8c-0.1,0.2-0.4,0.2-0.7,0C267.7,34.5,267.5,34.3,267.5,34.1z"/>
						</g>
						<g>
							<path class="st0" d="M265.4,32.9c-0.5,1.2-1.2,2.4-2,3.4"/>
						</g>
						<g>
							<path class="st0" d="M266.2,23.2c0.3,1.4,0.4,2.9,0.4,4.3c-0.1,1.4-0.3,2.9-0.8,4.3"/>
							<path d="M265.2,31.6c0.5-1.4,0.7-2.8,0.8-4.1c0.1-1.4-0.1-2.8-0.4-4.2c0-0.1,0.2-0.3,0.5-0.4c0.3-0.1,0.6,0,0.6,0.1
								c0.3,1.5,0.5,3,0.4,4.5c-0.1,1.5-0.3,3-0.8,4.5c0,0.1-0.3,0.2-0.7,0C265.4,32,265.2,31.8,265.2,31.6z"/>
						</g>
						<g>
							<path class="st0" d="M262.8,22.4c1.4,3.9,0.9,8.6-1.7,11.9"/>
						</g>
						<g>
							<path class="st0" d="M259.7,30.6c-0.2,0.6-0.6,1.1-0.9,1.6"/>
						</g>
						<g>
							<path class="st0" d="M260.4,25.6c0.2,1.5,0,3.1-0.5,4.4"/>
							<path d="M259.4,29.8c0.4-1.2,0.6-2.7,0.4-4.1c0-0.1,0.3-0.2,0.6-0.2c0.3,0,0.6,0,0.6,0.1c0.2,1.6,0,3.2-0.5,4.7
								c0,0.1-0.3,0.1-0.6-0.1C259.6,30,259.4,29.9,259.4,29.8z"/>
						</g>
						<g>
							<path class="st0" d="M256.5,30.1c-0.5,0.8-1.4,1.7-2.2,2.1"/>
						</g>
						<g>
							<path class="st0" d="M257.3,25.5c0.1,0.7,0.1,1.6,0,2.3c-0.1,0.7-0.3,1.4-0.7,2"/>
							<path d="M256.1,29.5c0.3-0.5,0.5-1.1,0.6-1.8c0.1-0.7,0.1-1.5,0-2.1c0,0,0.2-0.1,0.6-0.2c0.3-0.1,0.6-0.1,0.6,0
								c0.1,0.8,0.2,1.7,0,2.5c-0.1,0.8-0.4,1.5-0.7,2.2c0,0.1-0.3,0-0.6-0.2C256.3,29.7,256.1,29.6,256.1,29.5z"/>
						</g>
					</g>
				</g>
				<path d="M246.2,30.6c0.3-0.2,0.5-0.3,0.5-0.3c0.2,0.3,0.5,0.6,0.8,0.8c0.3,0.2,0.5,0.4,0.8,0.6c0.5,0.3,1.1,0.5,1.7,0.6
					c0,0,0,0.3,0,0.6c-0.1,0.3-0.1,0.6-0.2,0.6c-0.3-0.1-0.6-0.1-0.9-0.2c-0.1,0-0.3,0.3-0.5,0.8c-0.2,0.5-0.2,0.9-0.1,0.9
					c0.2,0.1,0.4,0.1,0.6,0.2c0.1,0,0.1,0.3,0,0.6c-0.1,0.3-0.2,0.6-0.3,0.6l-0.1,0c-0.1,0-0.3,0.3-0.5,0.8v0c-0.1,0.5-0.1,0.9,0,1
					c0.9,0.2,1.9,0.4,2.9,0.4c0.1,0,0.2,0.3,0.2,0.6c0,0.3-0.1,0.6-0.2,0.6c-1.3,0-2.5-0.2-3.7-0.6c-0.2-0.1-0.4,0.3-0.6,0.8l0,0
					c-0.2,0.5-0.1,0.9,0.1,1c0.8,0.2,1.6,0.4,2.4,0.5c0.1,0,0.2,0.3,0.2,0.6c0,0.3-0.2,0.6-0.3,0.6c-1.1-0.1-2.2-0.4-3.3-0.8
					c-0.2-0.1-0.5,0.2-0.7,0.7l0,0c-0.2,0.5-0.2,0.9,0.1,1c1,0.4,2,0.6,3,0.8c0.2,0,0.2,0.3,0.2,0.6c-0.1,0.3-0.2,0.6-0.4,0.5
					c-1.9-0.3-3.9-1-5.7-2c-1.8-1-3.3-2.2-4.6-3.6c-0.1-0.1,0-0.4,0.2-0.6c0.2-0.2,0.5-0.3,0.6-0.2c0.6,0.6,1.3,1.2,2,1.8
					c0.2,0.2,0.6-0.1,0.9-0.5l0,0c0.3-0.4,0.4-0.9,0.2-1c-0.3-0.2-0.5-0.4-0.8-0.7c-0.1-0.1,0-0.4,0.2-0.6c0.2-0.2,0.5-0.4,0.6-0.3
					l0.2,0.2c0.2,0.1,0.6-0.1,0.9-0.5l0,0c0.3-0.4,0.5-0.8,0.3-0.9c-0.5-0.4-1-0.9-1.4-1.4c-0.1-0.1,0.1-0.3,0.3-0.6
					c0.3-0.2,0.5-0.3,0.6-0.2c0.3,0.4,0.7,0.7,1,1c0.1,0.1,0.5-0.1,0.8-0.5l0,0c0.3-0.4,0.5-0.8,0.4-0.9l0,0
					c-0.1-0.1,0.1-0.3,0.3-0.6c0.2-0.2,0.5-0.4,0.5-0.3c0.1,0.1,0.3,0.3,0.4,0.4c0.1,0.1,0.4-0.2,0.7-0.6c0.3-0.4,0.5-0.8,0.4-0.9
					c-0.4-0.3-0.8-0.7-1.2-1.2C245.8,31,245.9,30.8,246.2,30.6z"/>
			</g>
		</g>
	</g>
	<g>
		<g>
			<g>
				<g>
					<path class="st0" d="M391.5,128.5l-1.3-0.2l-1.3-0.1l-2.6-0.2c-1.7-0.1-3.4-0.3-5.1-0.3l-5.2-0.1c-0.9,0-1.7-0.1-2.6-0.1
						l-2.6,0.1"/>
					<path d="M370.9,126l2.6-0.1c0.9,0,1.7,0,2.6,0.1l5.2,0.1c1.7,0,3.5,0.2,5.2,0.3l2.6,0.2l1.3,0.1l1.3,0.2c1.1,0.1,1.8,1,1.7,1.8
						c-0.1,0.9-1,1.5-2.1,1.4l-1.3-0.2l-1.3-0.1l-2.5-0.2c-1.7-0.1-3.4-0.3-5.1-0.3l-5.1-0.1c-0.9,0-1.7-0.1-2.6-0.1l-2.6,0.1
						c-1.1,0-2-0.7-2-1.6C368.9,126.8,369.8,126.1,370.9,126z"/>
				</g>
				<g>
					<polyline class="st0" points="416.9,133.5 413.2,132.4 409.4,131.5 405.6,130.6 401.7,130 					"/>
					<path class="st0" d="M466.3,161c-1.1-1-2.2-1.9-3.3-2.8l-3.4-2.8c-1.1-0.9-2.3-1.7-3.5-2.6c-1.2-0.8-2.3-1.7-3.5-2.5"/>
				</g>
				<g>
					<path class="st0" d="M366,119.6c-1.7,0-3.4,0.2-5.1,0.3"/>
					<path d="M360.8,118.3c1.7-0.1,3.4-0.3,5.1-0.3c1.1,0,2.1,0.7,2.1,1.6c0,0.9-0.9,1.6-2,1.6c-1.7,0-3.4,0.2-5.1,0.3
						c-1.1,0.1-2.1-0.6-2.1-1.5C358.8,119.1,359.7,118.4,360.8,118.3z"/>
				</g>
				<g>
					<path class="st0" d="M405.1,122.3c-10.3-2-20.9-2.9-31.5-2.9"/>
					<path d="M373.6,117.8c10.7,0,21.4,0.9,31.8,2.9c1.1,0.2,1.9,1.1,1.7,1.9c-0.2,0.9-1.2,1.4-2.3,1.2c-10.2-1.9-20.7-2.8-31.2-2.9
						c-1.1,0-2-0.7-2-1.6C371.6,118.6,372.5,117.8,373.6,117.8z"/>
				</g>
				<g>
					<path class="st0" d="M419.3,125.7l-2.6-0.8c-0.9-0.3-1.7-0.5-2.6-0.7"/>
					<path class="st0" d="M475.3,158.2l-4.3-3.9c-1.4-1.3-3-2.5-4.5-3.7l-2.3-1.8l-2.4-1.7c-1.6-1.1-3.1-2.3-4.7-3.4"/>
				</g>
				<g>
					<path class="st0" d="M417.7,116.8c-1.6-0.4-3.1-0.7-4.7-1.1c-1.6-0.4-3.1-0.8-4.7-1.1l-4.8-0.8c-1.6-0.3-3.2-0.6-4.8-0.8"/>
					<path class="st0" d="M492.6,164.6c-7.8-9-16.5-17.2-26-24.2"/>
				</g>
				<g>
					<path class="st0" d="M406,105.9c-2.3-0.4-4.6-0.8-6.8-1.1c-2.3-0.3-4.6-0.6-6.9-0.8c-4.6-0.3-9.2-0.7-13.8-0.8
						c-4.6-0.2-9.2,0-13.7,0.1c-2.3,0.1-4.6,0.3-6.9,0.4c-2.3,0.1-4.6,0.4-6.9,0.6"/>
					<path d="M350.9,102.8c2.3-0.3,4.6-0.5,6.9-0.6c2.3-0.1,4.6-0.3,6.9-0.4c4.6-0.1,9.2-0.3,13.8-0.1c4.6,0,9.3,0.4,13.9,0.8
						c2.3,0.3,4.6,0.6,6.9,0.8c2.3,0.2,4.6,0.7,6.9,1.1c1.2,0.2,2.1,1.1,1.9,2c-0.2,0.9-1.3,1.4-2.5,1.2c-2.3-0.4-4.5-0.8-6.8-1.1
						c-2.3-0.3-4.5-0.6-6.8-0.8c-4.6-0.3-9.1-0.7-13.7-0.8c-4.6-0.2-9.1,0-13.6,0.1c-2.3,0.1-4.5,0.3-6.8,0.4
						c-2.3,0.1-4.5,0.4-6.8,0.6c-1.2,0.1-2.3-0.5-2.4-1.3C348.7,103.8,349.6,102.9,350.9,102.8z"/>
				</g>
				<g>
					<path class="st0" d="M419.8,108.9c-1.3-0.4-2.5-0.6-3.8-0.9"/>
					<path class="st0" d="M474.9,136.4c-0.7-0.6-1.4-1.1-2.1-1.6l-2.2-1.6c-1.5-1-2.9-2.1-4.4-3.1"/>
				</g>
				<g>
					<path class="st0" d="M385.9,95.4c-1.8-0.2-3.7-0.2-5.5-0.2l-5.5-0.1c-3.6,0-7.3,0.1-10.9,0.2"/>
					<path d="M363.9,93.6c3.7-0.1,7.3-0.2,11-0.2l5.5,0.1c1.8,0,3.7,0.1,5.5,0.2c1.3,0.1,2.3,0.9,2.2,1.8c-0.1,0.9-1.1,1.5-2.4,1.4
						c-1.8-0.2-3.6-0.2-5.5-0.2l-5.4-0.1c-3.6,0-7.2,0.1-10.8,0.2c-1.3,0.1-2.3-0.6-2.4-1.4C361.6,94.5,362.6,93.7,363.9,93.6z"/>
				</g>
				<g>
					<path class="st0" d="M426.2,102.3c-2.6-0.8-5.1-1.5-7.7-2.1l-3.9-0.9c-1.3-0.3-2.6-0.6-3.9-0.8l-7.9-1.4l-7.9-1"/>
					<path class="st0" d="M487.9,136.6c-1.3-1.2-2.7-2.4-4.1-3.5l-4.2-3.4c-1.4-1.1-2.9-2.2-4.4-3.2c-1.5-1-2.9-2.2-4.4-3.2"/>
				</g>
			</g>
			<g>
				<g>
					<path class="st0" d="M256.9,179.3c0.2-0.3,0.5-0.6,0.7-0.8c0.3-0.4,0.6-0.7,1-1.1l0.3-0.3"/>
					<polyline class="st0" points="262.9,172.9 263.9,171.8 264.1,171.5 265.4,170.3 266.1,169.7 267.6,168.2 269.5,166.4 
						271.4,164.8 					"/>
					<path d="M259.1,174.4v5.1c-0.3,0.3-0.6,0.7-0.9,1c-0.2,0.2-0.3,0.3-0.5,0.5c-0.4,0.3-0.9,0.4-1.4,0.3v-3.9
						c0.4-0.4,0.8-0.9,1.1-1.3l0.2-0.3L259.1,174.4z"/>
					<path d="M265.4,167.9c0.1,0.2,0.2,0.4,0.2,0.7v4l-0.4,0.4l-1,1l-1.4,1.5v-5l1.4-1.3L265.4,167.9z"/>
					<path d="M272.9,165.9l-1.9,1.7l-1.8,1.8l-2.6,2.5v-4.4l0.5-0.4l1.9-1.8l1.9-1.7c0.8-0.7,1.9-0.7,2.5-0.1
						C273.9,164.1,273.7,165.2,272.9,165.9z"/>
				</g>
				<g>
					<path class="st0" d="M346.2,129.7c-24.5,3.7-47.4,13.4-66.8,28.4"/>
					<path d="M278.4,156.8c19.6-15.2,42.8-25,67.5-28.7c1.1-0.2,2,0.4,2.2,1.3c0.1,0.9-0.6,1.7-1.7,1.9
						c-24.2,3.7-46.9,13.2-66.1,28.1c-0.8,0.7-1.9,0.6-2.5-0.1C277.4,158.6,277.6,157.5,278.4,156.8z"/>
				</g>
				<g>
					<path class="st0" d="M247.8,177.4c-1.1,1.3-2.1,2.7-3.1,4"/>
					<path d="M246.2,176.8v5.7c0,0,0,0-0.1,0.1c-0.4,0.5-0.8,0.8-1.3,0.9c-0.5,0.1-1,0.1-1.4-0.2v-2.9c0.5-0.6,0.9-1.2,1.4-1.8
						C245.3,178,245.7,177.4,246.2,176.8z"/>
				</g>
				<g>
					<path class="st0" d="M252.7,171.7c1.2-1.3,2.4-2.6,3.7-3.9c0.4-0.4,0.8-0.9,1.3-1.3c0.4-0.4,0.8-0.8,1.2-1.2"/>
					<path class="st0" d="M276,150.4c-3.4,2.6-6.7,5.3-10,8.1"/>
					<path d="M251.7,170.7c0.3-0.3,0.6-0.7,1-1v3.9c-0.4,0-0.8-0.1-1.1-0.3c-0.1-0.1-0.1-0.1-0.2-0.2c-0.4-0.5-0.4-1.3,0-1.9
						C251.5,171,251.6,170.8,251.7,170.7z"/>
					<path d="M259.1,165.7v1.8c-0.5,0.5-0.9,0.9-1.4,1.4c-0.5,0.5-0.9,1-1.4,1.4l0-4.7c0.1-0.1,0.1-0.3,0.2-0.5
						c0.3-0.3,0.5-0.5,0.8-0.8c0.1,0,0.3-0.1,0.4-0.1c0.6,0,1.1,0.4,1.3,0.9C259.1,165.3,259.1,165.5,259.1,165.7z"/>
					<path d="M277.4,151.7c-3.8,2.8-7.4,5.8-10.9,9v-4.3c2.9-2.5,5.9-5,9-7.3c0.9-0.7,2.1-0.6,2.6,0.1
						C278.7,149.9,278.3,151,277.4,151.7z"/>
				</g>
				<g>
					<path class="st0" d="M349.8,120.9c-23.7,2.9-46.5,11.1-66.3,24.2"/>
					<path d="M282.6,143.8c20-13.2,43.1-21.6,67-24.5c1.1-0.1,2.1,0.5,2.2,1.4c0.1,0.9-0.7,1.7-1.8,1.8c-23.5,2.8-46,11-65.6,24
						c-0.9,0.6-2.1,0.5-2.6-0.2C281.3,145.6,281.6,144.4,282.6,143.8z"/>
				</g>
				<g>
					<path class="st0" d="M265.4,148.4c-0.2,0.2-0.4,0.3-0.6,0.5"/>
					<path class="st0" d="M266.1,147.9c6.7-5.4,13.8-10.3,21.2-14.6l3-1.7c1-0.6,2-1.1,3-1.6l6.1-3.1l6.3-2.7c1-0.5,2.1-0.9,3.2-1.3
						l3.2-1.2c8.6-3.1,17.4-5.5,26.4-7.2c9-1.6,18.1-2.6,27.2-3"/>
					<path d="M264.3,147.4c0.4-0.4,0.9-0.7,1.3-1v4.1c-0.4,0.2-0.9,0.4-1.3,0.3c-0.4,0-0.7-0.2-1-0.5c-0.2-0.2-0.3-0.5-0.3-0.9
						c0-0.6,0.3-1.2,0.9-1.7C264.1,147.6,264.2,147.5,264.3,147.4z"/>
					<path d="M368.3,111.4c0,0.9-0.9,1.6-2.1,1.6c-9.1,0.4-18.1,1.3-27,3c-8.9,1.7-17.7,4.1-26.2,7.2l-3.2,1.2
						c-1.1,0.4-2.1,0.8-3.2,1.3l-6.2,2.7l-6.1,3c-1,0.5-2,1.1-3,1.6l-3,1.7c-7.7,4.5-15.1,9.6-22,15.3v-4.1
						c6.4-5.1,13.3-9.8,20.4-13.9l3-1.7c1-0.6,2-1.2,3-1.6l6.2-3.1l6.3-2.8c1-0.5,2.1-0.9,3.2-1.3l3.2-1.2
						c8.7-3.2,17.6-5.6,26.7-7.3c9.1-1.6,18.3-2.6,27.5-3C367.3,109.8,368.3,110.5,368.3,111.4z"/>
				</g>
				<g>
					<path class="st0" d="M258.9,143.2c-0.4,0.4-0.9,0.7-1.3,1.1c-0.4,0.4-0.9,0.7-1.3,1.1"/>
					<path class="st0" d="M226.5,178.7c2.6-3.9,5.5-7.5,8.3-11.1l1.6-1.9"/>
					<path class="st0" d="M243.4,157.8l0.6-0.6c0.2-0.2,0.5-0.5,0.7-0.7c0.4-0.4,0.8-0.9,1.3-1.3"/>
					<path class="st0" d="M264.5,138.8c-0.5,0.4-1.1,0.8-1.6,1.3"/>
					<path d="M233.2,166.5l2.9-3.3v4.9l-0.4,0.5c-2.8,3.6-5.7,7.2-8.2,11c-0.7,1-1.9,1.4-2.6,0.9c-0.7-0.5-0.8-1.7,0-2.7
						C227.4,173.9,230.3,170.2,233.2,166.5z"/>
					<path d="M246.2,152.6v4.9c-0.3,0.3-0.6,0.6-0.9,0.9l-0.5,0.5l-1.4,1.5v-5c0.5-0.5,0.9-0.9,1.4-1.4
						C245.3,153.6,245.7,153.1,246.2,152.6z"/>
					<path d="M259.1,140.9v4.5c-0.5,0.4-0.9,0.8-1.4,1.2c-0.5,0.4-0.9,0.8-1.4,1.2v-4.6c0.5-0.4,0.9-0.8,1.4-1.2
						C258.2,141.6,258.7,141.2,259.1,140.9z"/>
					<path d="M265.6,139.2v0.9c-0.5,0.4-0.9,0.7-1.4,1.1c-0.5,0.3-0.9,0.7-1.4,1.1v-3.1c0-0.8,0.6-1.4,1.4-1.4
						C265,137.8,265.6,138.4,265.6,139.2z"/>
				</g>
				<g>
					<path class="st0" d="M332.8,107.3c-10.7,2.3-21.2,5.5-31.3,9.8c-10.1,4.3-19.8,9.5-28.8,15.7"/>
					<path d="M271.8,131.4c9.1-6.2,18.9-11.6,29.1-15.9c10.2-4.3,20.8-7.6,31.6-9.9c1.2-0.3,2.3,0.2,2.5,1.1c0.2,0.9-0.7,1.8-1.9,2
						c-10.6,2.2-21,5.4-31,9.7c-10,4.2-19.6,9.5-28.5,15.6c-1,0.7-2.2,0.7-2.7,0C270.4,133.3,270.8,132.2,271.8,131.4z"/>
				</g>
				<g>
					<path class="st0" d="M243.2,146.5c-2.7,2.5-5.2,5.2-7.7,7.9c-1.3,1.3-2.5,2.8-3.7,4.1l-3.6,4.2"/>
					<path d="M238.5,149.2c0.4-0.4,0.8-0.9,1.3-1.3v4.6c-0.4,0.5-0.9,0.9-1.3,1.3c-0.4,0.5-0.8,0.9-1.3,1.3
						c-0.1,0.1-0.2,0.2-0.3,0.3c-0.1,0.1-0.2,0.2-0.2,0.2c-1.2,1.2-2.3,2.6-3.4,3.9l-3.6,4.2c-0.8,1-2,1.4-2.7,0.8
						c-0.7-0.5-0.6-1.8,0.2-2.9l3.6-4.3c1.2-1.4,2.4-2.9,3.7-4.2c0.7-0.7,1.4-1.5,2.1-2.2c0.2-0.2,0.4-0.4,0.5-0.6
						C237.6,150.1,238,149.6,238.5,149.2z"/>
					<path d="M244.7,147.2c-0.1,0.2-0.2,0.3-0.4,0.5c-0.3,0.3-0.6,0.5-0.9,0.8v-3.9c0.5-0.1,0.9-0.1,1.3,0.2c0.1,0,0.1,0.1,0.2,0.1
						C245.4,145.4,245.3,146.4,244.7,147.2z"/>
				</g>
				<g>
					<path class="st0" d="M256.4,134.8l1.3-1l1.3-1l0.7-0.6c1-0.9,2.1-1.7,3.2-2.4c0.4-0.3,0.9-0.6,1.3-0.9c0.2-0.1,0.4-0.3,0.6-0.4
						l0.7-0.5l0.6-0.5l1.3-0.9c0.9-0.6,1.7-1.2,2.7-1.8l5.4-3.4c0.9-0.6,1.8-1.1,2.8-1.6l2.8-1.6c3.7-2.2,7.6-4,11.4-5.9l5.9-2.6
						c1-0.4,2-0.9,3-1.3l3-1.1c2-0.7,4-1.5,6-2.2l6.1-1.9c8.2-2.4,16.5-4.4,24.9-5.6"/>
					<path d="M251,137.2c0.5-0.4,0.9-0.8,1.4-1.2c0,0.7-0.6,1.2-1.3,1.2C251.1,137.2,251.1,137.2,251,137.2z"/>
					<path d="M259.1,130.8v4l-2.8,2.2v-4.4l1.4-1.1l1.1-0.9c0.1-0.1,0.2-0.1,0.2-0.2C259.1,130.6,259.1,130.7,259.1,130.8z"/>
					<path d="M265.6,125.7v4.3c0,0,0,0,0,0.1c-0.9,0.6-1.8,1.2-2.7,1.9v-3.4c0.2-0.4,0.5-1,0.8-1.4l0.6-0.4L265.6,125.7z"/>
					<path d="M341.9,99c-8.3,1.2-16.5,3.2-24.6,5.5l-6.1,1.9c-2,0.7-4,1.5-6,2.2l-3,1.1c-1,0.4-2,0.8-2.9,1.2l-5.8,2.6
						c-3.8,1.9-7.6,3.7-11.3,5.9l-2.8,1.6c-0.9,0.5-1.8,1-2.7,1.6l-5.4,3.4c-0.9,0.6-1.8,1.2-2.6,1.8l-2.2,1.6v-3.9l0.4-0.3
						c0.9-0.6,1.8-1.2,2.7-1.8l5.5-3.5c0.9-0.6,1.8-1.1,2.8-1.7l2.8-1.6c3.7-2.2,7.6-4,11.5-6l5.9-2.6c1-0.4,2-0.9,3-1.3l3-1.1
						c2-0.7,4-1.6,6.1-2.2l6.2-2c8.3-2.4,16.6-4.4,25.1-5.6c1.3-0.2,2.4,0.3,2.5,1.2C344.1,98,343.1,98.9,341.9,99z"/>
				</g>
			</g>
			<g>
				<g>
					<path class="st0" d="M220.2,279.2c0,1.7-0.1,3.5-0.1,5.2l0.1,5.2l0.1,2.6c0,0.9,0.1,1.7,0.2,2.6l0.3,5.2"/>
					<path d="M219.1,300.2l-0.3-5.2c-0.1-0.9-0.1-1.7-0.2-2.6l-0.1-2.6l-0.1-5.3c0-1.8,0.1-3.5,0.1-5.3c0-1.1,0.8-2,1.6-1.9
						c0.9,0,1.6,0.9,1.6,2c0,1.7-0.1,3.5-0.1,5.2l0.1,5.2l0,2.6c0,0.9,0.1,1.7,0.2,2.6l0.3,5.2c0,1.1-0.5,2-1.4,2.1
						C220,302.1,219.2,301.3,219.1,300.2z"/>
				</g>
				<g>
					<path class="st0" d="M242.5,198.8c-1.1,1.7-2.1,3.4-3,5.1c-0.4,0.8-0.9,1.5-1.3,2.3c-0.1,0.2-0.2,0.3-0.3,0.5
						c-0.4,0.6-0.7,1.2-1,1.9c-0.2,0.4-0.4,0.7-0.5,1.1c-0.2,0.4-0.4,0.7-0.5,1.1c-0.7,1.4-1.3,2.7-2,4.1
						c-2.4,5.6-4.7,11.3-6.4,17.2c-3.6,11.7-5.9,24-6.8,36.5"/>
					<path d="M234.1,210.1c0.6-1.3,1.2-2.7,2-3.9v7.2c-0.4,0.7-0.7,1.5-1.1,2.2c-2.4,5.5-4.7,11.2-6.4,17
						c-3.6,11.6-5.8,23.7-6.7,36.1c-0.1,1.1-0.8,1.9-1.7,1.8c-0.9-0.1-1.5-1-1.5-2.1c0.9-12.6,3.2-25,6.8-36.8
						c1.7-6,4.1-11.7,6.5-17.4C232.7,212.9,233.4,211.5,234.1,210.1z"/>
					<path d="M239.7,200.1l0,7.1c0,0,0,0,0,0c-0.5,0.9-1,1.7-1.4,2.6c-0.3,0.7-0.7,1.4-1,2c-0.1,0.3-0.3,0.6-0.4,0.8v-7.7
						c0.5-0.8,0.9-1.7,1.4-2.5C238.8,201.8,239.3,201,239.7,200.1z"/>
					<path d="M243.9,199.6c-0.1,0.2-0.3,0.5-0.4,0.7v-3.2c0,0,0.1,0,0.1,0C244.2,197.7,244.4,198.8,243.9,199.6z"/>
				</g>
				<g>
					<path class="st0" d="M213.1,305.4c0.2,1.7,0.3,3.4,0.6,5.1"/>
					<path d="M212,310.7c-0.2-1.7-0.4-3.4-0.6-5.1c-0.1-1.1,0.5-2.1,1.4-2.2s1.7,0.8,1.8,1.9c0.2,1.7,0.3,3.4,0.6,5
						c0.2,1.1-0.4,2.1-1.3,2.2C213.1,312.6,212.2,311.8,212,310.7z"/>
				</g>
				<g>
					<path class="st0" d="M212.7,265.9c-0.9,10.6-1,21.3-0.3,32"/>
					<path d="M210.8,298c-0.7-10.7-0.6-21.5,0.3-32.2c0.1-1.1,0.9-2,1.8-1.9c0.9,0.1,1.5,1.1,1.4,2.2c-0.9,10.5-0.9,21.2-0.3,31.7
						c0.1,1.1-0.6,2.1-1.5,2.1C211.7,300,210.9,299.1,210.8,298z"/>
				</g>
				<g>
					<path class="st0" d="M213.7,256.8c3-22.6,10.5-44.5,22.7-63.7"/>
					<path class="st0" d="M238.1,190.4c-0.4,0.6-0.8,1.2-1.2,1.8"/>
					<path d="M220.3,221.6c4-11,9.2-21.6,15.7-31.4v6c-11.2,18.4-18.2,39.3-21.1,60.9c-0.2,1.1-1,1.9-1.8,1.8
						c-0.9-0.1-1.5-1.1-1.3-2.2C213.4,244.6,216.2,232.8,220.3,221.6z"/>
					<path d="M239.7,188.6v2.6c-0.5,0.7-0.9,1.4-1.4,2.1c-0.5,0.7-0.9,1.5-1.4,2.2v-6.4c0.4-0.5,0.9-0.8,1.4-0.9
						c0.4-0.1,0.8,0,1.2,0.2C239.6,188.5,239.7,188.6,239.7,188.6z"/>
				</g>
				<g>
					<path class="st0" d="M241.5,172.2c-0.7,0.8-1.4,1.7-2,2.5c-0.4,0.5-0.9,1.1-1.3,1.6c-0.4,0.6-0.9,1.1-1.3,1.7
						c-0.2,0.2-0.4,0.5-0.5,0.7c-3.8,5.1-7.3,10.4-10.5,16c-4.6,7.9-8.4,16.3-11.5,24.9c-6.3,17.2-9.5,35.4-10.4,53.7"/>
					<path d="M224.2,194c3.6-6.2,7.5-12.1,11.9-17.8v5.4c-3.3,4.5-6.3,9.2-9.1,14.1c-4.6,7.8-8.3,16.1-11.4,24.6
						c-6.2,17-9.4,35.1-10.3,53.2c-0.1,1.2-0.8,2.1-1.7,2.1c-0.9,0-1.6-1-1.5-2.2c0.9-18.4,4.1-36.8,10.5-54.1
						C215.7,210.4,219.5,201.9,224.2,194z"/>
					<path d="M239.7,171.8v5.7c-0.5,0.6-0.9,1.2-1.4,1.8c-0.5,0.6-0.9,1.2-1.4,1.9v-5.8c0.5-0.6,0.9-1.2,1.4-1.8
						C238.8,173,239.3,172.4,239.7,171.8z"/>
				</g>
				<g>
					<path class="st0" d="M196.3,266.7l-0.4,6.8c-0.1,2.3-0.1,4.6-0.2,6.8l-0.1,3.4l0.1,3.4c0.1,2.3,0.1,4.6,0.2,6.8
						c0.4,9.1,1.4,18.3,3,27.3"/>
					<path d="M197.3,321.7c-1.6-9.1-2.5-18.3-3-27.5c-0.1-2.3-0.1-4.6-0.2-6.9l-0.1-3.4l0.1-3.4c0.1-2.3,0.1-4.6,0.2-6.9l0.4-6.9
						c0.1-1.2,0.9-2.2,1.7-2.1c0.9,0.1,1.5,1.1,1.4,2.3l-0.4,6.8c-0.1,2.3-0.1,4.5-0.2,6.8l-0.1,3.4l0.1,3.4
						c0.1,2.3,0.1,4.5,0.2,6.8c0.4,9.1,1.4,18.1,2.9,27.1c0.2,1.2-0.3,2.3-1.1,2.5C198.4,323.7,197.5,322.9,197.3,321.7z"/>
				</g>
				<g>
					<path class="st0" d="M216.7,194.5c-5.2,9.7-9.4,19.8-12.6,30.3c-3.2,10.4-5.4,21.2-6.8,31.9"/>
					<path d="M195.7,256.5c1.4-10.9,3.6-21.7,6.9-32.2c3.2-10.5,7.5-20.8,12.7-30.5c0.6-1.1,1.7-1.6,2.5-1.2
						c0.8,0.4,0.9,1.6,0.3,2.7c-5.1,9.6-9.3,19.6-12.5,30c-3.2,10.3-5.4,21-6.8,31.6c-0.1,1.2-0.9,2.1-1.8,2
						C196.2,258.8,195.6,257.7,195.7,256.5z"/>
				</g>
				<g>
					<path class="st0" d="M187.6,287.4l0.1,5.4c0,1.8,0.2,3.6,0.3,5.4l0.3,5.4l0.6,5.4"/>
					<path d="M187.3,309.3l-0.6-5.5l-0.3-5.5c-0.1-1.8-0.3-3.7-0.3-5.5l-0.1-5.5c0-1.3,0.7-2.3,1.6-2.3c0.9,0,1.6,1,1.6,2.3l0.1,5.4
						c0,1.8,0.2,3.6,0.3,5.4l0.3,5.4l0.6,5.4c0.1,1.3-0.5,2.4-1.3,2.5C188.3,311.5,187.4,310.5,187.3,309.3z"/>
				</g>
				<g>
					<path class="st0" d="M214.7,181.7c-2.3,3.6-4.3,7.4-6.4,11.1l-2.8,5.8c-0.5,1-0.9,1.9-1.4,2.9l-1.3,3c-3.5,7.8-6.1,16-8.4,24.1
						l-1.6,6.2c-0.3,1-0.5,2.1-0.7,3.1l-0.6,3.1c-0.9,4.1-1.5,8.3-2.1,12.5c-0.3,2.1-0.5,4.2-0.7,6.3c-0.2,2.1-0.5,4.2-0.6,6.3
						c-0.3,4.2-0.6,8.3-0.6,12.5"/>
					<path d="M186,278.4c0-4.2,0.3-8.4,0.6-12.6c0.1-2.1,0.4-4.2,0.6-6.3c0.2-2.1,0.4-4.2,0.7-6.3c0.7-4.2,1.2-8.4,2.1-12.6l0.6-3.1
						c0.2-1,0.4-2.1,0.7-3.1l1.6-6.2c2.3-8.3,5-16.5,8.5-24.4l1.3-3c0.4-1,0.9-1.9,1.4-2.9l2.8-5.8c2.1-3.8,4.1-7.6,6.4-11.2
						c0.7-1.1,1.9-1.6,2.6-1.2c0.7,0.5,0.8,1.7,0.1,2.8c-2.3,3.6-4.2,7.3-6.3,11l-2.8,5.7c-0.5,1-0.9,1.9-1.4,2.9l-1.2,2.9
						c-3.4,7.8-6.1,15.8-8.3,23.9l-1.5,6.1c-0.3,1-0.5,2-0.7,3.1l-0.6,3.1c-0.9,4.1-1.5,8.2-2.1,12.4c-0.3,2.1-0.5,4.1-0.7,6.2
						c-0.2,2.1-0.5,4.1-0.6,6.2c-0.3,4.1-0.6,8.3-0.6,12.4c0,1.3-0.8,2.3-1.6,2.2C186.7,280.7,186,279.7,186,278.4z"/>
				</g>
			</g>
			<g>
				<g>
					<path class="st0" d="M266.2,398.5c1.9,1.8,3.8,3.6,5.8,5.3c1.3,1.1,2.6,2.3,3.9,3.3l4,3.2"/>
					<path class="st0" d="M265.4,397.7c-0.3-0.3-0.6-0.6-0.9-0.9"/>
					<path d="M262.8,395.6c0.1-0.1,0.2-0.3,0.3-0.4c0.3-0.3,0.7-0.4,1.1-0.4c0.5,0,1,0.2,1.4,0.5v2.4v2.4c-0.5-0.4-0.9-0.9-1.4-1.3
						c-0.3-0.3-0.6-0.5-0.8-0.8c-0.2-0.2-0.4-0.5-0.5-0.7V395.6z"/>
					<path d="M281.7,411.4c-0.5,0.7-1.7,0.8-2.5,0.1l-4.1-3.2c-1.4-1-2.6-2.2-3.9-3.3c-1.6-1.4-3.2-2.8-4.7-4.3v-4.4
						c2.2,2.1,4.5,4.3,6.8,6.3c1.3,1.1,2.5,2.3,3.9,3.3l4,3.1C282,409.6,282.3,410.7,281.7,411.4z"/>
				</g>
				<g>
					<path class="st0" d="M243.4,370.7c0.4,0.7,0.9,1.3,1.3,2c0.4,0.6,0.8,1.3,1.3,1.9"/>
					<path class="st0" d="M257.3,389.2c-0.3-0.4-0.7-0.8-1-1.1"/>
					<path class="st0" d="M252.4,383.3c-0.4-0.5-0.9-1.1-1.3-1.6c-0.4-0.6-0.9-1.1-1.3-1.7"/>
					<path class="st0" d="M224.4,324.5c2.6,11.4,6.5,22.4,11.5,32.8"/>
					<path class="st0" d="M236.9,359.4c0.4,0.8,0.8,1.6,1.3,2.4c0.4,0.8,0.8,1.6,1.3,2.3"/>
					<path d="M226.1,324.2c2.3,10.2,5.7,20.1,10,29.5v7.3c-0.2-0.4-0.4-0.8-0.6-1.2c-5.5-11-9.7-22.7-12.5-34.9
						c-0.2-1.1,0.3-2.1,1.2-2.3C225,322.4,225.9,323.1,226.1,324.2z"/>
					<path d="M239.7,360.7v7.1c-0.5-0.8-0.9-1.6-1.4-2.4c-0.5-0.8-0.9-1.7-1.4-2.5v-7.7c0.4,0.9,0.9,1.9,1.4,2.8c0,0,0,0,0,0
						C238.8,358.9,239.3,359.8,239.7,360.7z"/>
					<path d="M244.8,369.5c0.5,0.7,0.9,1.4,1.4,2.1v6.2c-0.5-0.7-0.9-1.3-1.4-2c-0.5-0.7-0.9-1.4-1.4-2.1v-6.5
						C243.9,368,244.3,368.7,244.8,369.5z"/>
					<path d="M251.3,378.9c0.5,0.6,0.9,1.2,1.4,1.8v5.6c-0.5-0.6-0.9-1.1-1.4-1.7c-0.5-0.6-0.9-1.2-1.4-1.8V377
						C250.3,377.6,250.8,378.2,251.3,378.9z"/>
					<path d="M259.1,388.8c-0.1-0.2-0.2-0.5-0.4-0.7c-0.3-0.4-0.7-0.8-1-1.1c-0.4-0.4-0.7-0.8-1.1-1.2c-0.2,0.2-0.3,0.6-0.3,0.9v1.4
						v2.6c0.4,0.4,0.9,0.6,1.4,0.6c0.4,0,0.8-0.1,1.1-0.4c0.1-0.1,0.3-0.3,0.3-0.5V388.8z"/>
				</g>
				<g>
					<path class="st0" d="M278.7,419.5c1.4,1,2.7,2,4.1,2.9"/>
					<path d="M282,423.7c-1.4-1-2.8-2-4.2-2.9c-0.9-0.7-1.2-1.8-0.7-2.5s1.7-0.8,2.6-0.1c1.4,1,2.7,1.9,4.1,2.9
						c0.9,0.6,1.3,1.7,0.8,2.4C284.1,424.2,283,424.3,282,423.7z"/>
				</g>
				<g>
					<path class="st0" d="M262.9,406.5c0.4,0.4,0.8,0.8,1.3,1.2c0.4,0.4,0.8,0.7,1.2,1.1"/>
					<path class="st0" d="M272.8,415c-2.2-1.8-4.4-3.6-6.5-5.5"/>
					<path class="st0" d="M256.4,400.1c0.4,0.4,0.8,0.9,1.3,1.3c0.4,0.4,0.8,0.9,1.3,1.3"/>
					<path d="M251.1,392.1c0.2,0.2,0.4,0.5,0.6,0.7c-0.2,0.1-0.5,0.2-0.8,0.1c-0.6-0.1-1.1-0.7-1.1-1.3l0-0.2
						C250.3,391.4,250.8,391.6,251.1,392.1z"/>
					<path d="M257.7,399c0.5,0.5,0.9,0.9,1.4,1.4v4.9c-0.5-0.4-0.9-0.9-1.4-1.4c-0.5-0.4-0.9-0.9-1.4-1.4v-5
						C256.8,398,257.3,398.5,257.7,399z"/>
					<path d="M265.6,406.6C265.6,406.6,265.6,406.6,265.6,406.6l0,2c0,0.1,0,0.2,0,0.3c-0.1,0.6-0.7,1.1-1.4,1.1c0,0,0,0,0,0
						c-0.4-0.3-0.8-0.7-1.1-1c0-0.1-0.1-0.2-0.2-0.3l0-4.5C263.7,404.9,264.7,405.8,265.6,406.6z"/>
					<path d="M274.7,416.2c-0.5,0.7-1.7,0.7-2.6,0c-1.9-1.5-3.7-3-5.5-4.6v-4.3c2.4,2.2,5,4.3,7.5,6.3
						C274.9,414.4,275.2,415.5,274.7,416.2z"/>
				</g>
				<g>
					<path class="st0" d="M236.9,375.7c0.4,0.6,0.8,1.3,1.3,1.9c0.4,0.6,0.8,1.3,1.3,1.9"/>
					<path class="st0" d="M215.5,321.5c2.3,11.7,5.8,23.1,10.6,34c2.8,6.4,6.1,12.7,9.9,18.6"/>
					<path d="M227.6,354.9c2.4,5.6,5.2,11,8.4,16.2v6c-4.3-6.7-8.1-13.6-11.3-20.9c-4.8-11-8.4-22.5-10.7-34.3
						c-0.2-1.1,0.3-2.1,1.2-2.3c0.9-0.2,1.8,0.6,2,1.7C219.4,332.8,222.9,344.1,227.6,354.9z"/>
					<path d="M239.7,376.6v6.2c-0.5-0.7-0.9-1.3-1.4-2c-0.5-0.7-0.9-1.4-1.4-2v-6.4c0.5,0.7,0.9,1.5,1.4,2.2
						C238.8,375.2,239.3,375.9,239.7,376.6z"/>
					<path d="M243.4,382.3c0.3,0.4,0.5,0.7,0.8,1.1C243.8,383.3,243.4,382.8,243.4,382.3z"/>
					<path d="M245.7,387.3c-0.1,0.1-0.2,0.2-0.3,0.3c-0.5,0.4-1.3,0.4-1.9-0.1c0.2-0.5,0.6-0.8,1.2-0.8
						C245.1,386.8,245.5,387,245.7,387.3z"/>
				</g>
				<g>
					<path class="st0" d="M243.4,398c0.4,0.5,0.9,1,1.3,1.5c0.4,0.5,0.8,0.9,1.3,1.4"/>
					<path class="st0" d="M205,306.3c0.4,4.6,1.2,9.1,1.9,13.6l1.3,6.7l0.3,1.7l0.4,1.7l0.8,3.3c2.3,8.8,5.2,17.5,9,25.9
						c3.7,8.3,8.2,16.4,13.3,24c1.3,1.9,2.6,3.8,3.9,5.6"/>
					<path class="st0" d="M236.9,390c0.4,0.6,0.8,1.1,1.3,1.7c0.4,0.5,0.9,1.1,1.3,1.6"/>
					<path d="M220.3,358.5c4.3,9.6,9.6,18.8,15.7,27.4v5.4c-1.8-2.4-3.6-4.9-5.2-7.4c-5.1-7.7-9.6-15.8-13.4-24.2
						c-3.8-8.4-6.7-17.2-9.1-26.1l-0.8-3.4l-0.4-1.7l-0.3-1.7l-1.4-6.8c-0.7-4.6-1.5-9.1-1.9-13.7c-0.1-1.2,0.5-2.2,1.4-2.3
						c0.9-0.1,1.7,0.8,1.8,1.9c0.4,4.5,1.2,9,1.8,13.5l1.3,6.7l0.3,1.7l0.4,1.6l0.8,3.3C213.7,341.6,216.6,350.2,220.3,358.5z"/>
					<path d="M239.7,390.6v4.6c0,0.3-0.1,0.5-0.2,0.7c-0.4-0.5-0.8-1-1.2-1.5c-0.5-0.6-0.9-1.2-1.4-1.8v-5.8
						c0.5,0.6,0.9,1.2,1.4,1.9C238.8,389.4,239.3,390,239.7,390.6z"/>
					<path d="M246.2,398.5v5.2c-0.5-0.5-0.9-1-1.4-1.5c-0.5-0.5-0.9-1-1.4-1.6v-5.3c0.5,0.6,0.9,1.1,1.4,1.6
						C245.3,397.4,245.7,397.9,246.2,398.5z"/>
				</g>
				<g>
					<path class="st0" d="M243.4,410.2c0.4,0.4,0.8,0.9,1.3,1.3c0.4,0.4,0.8,0.9,1.3,1.3"/>
					<path class="st0" d="M256.4,422.6c0.4,0.4,0.8,0.7,1.3,1.1c0.4,0.4,0.8,0.7,1.2,1c0,0,0,0,0.1,0"/>
					<path class="st0" d="M262.8,427.8c0.4,0.3,0.8,0.7,1.2,1c0.4,0.3,0.8,0.6,1.2,0.9c0.2,0.2,0.4,0.3,0.6,0.5
						c0.1,0.1,0.2,0.2,0.4,0.3c4.9,3.7,10,7.1,15.2,10.2"/>
					<path class="st0" d="M252.4,419.1c-0.4-0.4-0.9-0.8-1.3-1.2c-0.4-0.4-0.9-0.8-1.3-1.2"/>
					<path class="st0" d="M239.5,405.9c-0.1-0.2-0.3-0.3-0.4-0.5"/>
					<path d="M239.7,403.7v4.5c-0.4-0.5-0.9-0.9-1.3-1.4c-0.1-0.1-0.2-0.3-0.4-0.4c-0.8-1-0.9-2.2-0.3-2.8c0.2-0.1,0.4-0.2,0.6-0.3
						C238.9,403.4,239.3,403.5,239.7,403.7z"/>
					<path d="M244.8,409c0.5,0.5,0.9,1,1.4,1.4v5c-0.5-0.5-0.9-0.9-1.4-1.4c-0.5-0.5-0.9-0.9-1.4-1.4v-5.1
						C243.9,408,244.4,408.5,244.8,409z"/>
					<path d="M251.3,415.5c0.5,0.5,0.9,0.9,1.4,1.3v4.7c-0.5-0.4-0.9-0.8-1.4-1.3c-0.5-0.4-0.9-0.8-1.4-1.3v-2.4l0-2.4
						C250.4,414.6,250.8,415.1,251.3,415.5z"/>
					<path d="M257.6,421.6c0.4,0.4,0.8,0.7,1.3,1.1c0,0.7,0,1.4,0,2.1c0,0.7,0,1.3,0,2c-0.4-0.3-0.7-0.6-1-0.8
						c-0.1-0.1-0.1-0.1-0.2-0.2c-0.4-0.3-0.8-0.7-1.3-1.1c0-0.7,0-1.4,0-2.1v-1.1c0-0.3,0.1-0.6,0.3-0.8
						C257,421,257.3,421.3,257.6,421.6z"/>
					<path d="M264.1,426.8c0.4,0.3,0.8,0.6,1.2,1c0,0.7,0,1.3-0.1,2c0,0.6-0.1,1.3-0.1,1.9c-0.4-0.3-0.8-0.6-1.2-0.9
						c-0.4-0.3-0.8-0.6-1.2-0.9c0-0.7,0.1-1.3,0.1-2c0-0.7,0-1.3,0-2C263.2,426.2,263.6,426.5,264.1,426.8z"/>
					<path d="M283.4,441.8c-0.4,0.8-1.7,0.9-2.8,0.3c-5-3-9.8-6.2-14.4-9.6c-0.1-0.1-0.3-0.2-0.5-0.3l0.1-1.9l0.1-1.9
						c0.1,0.1,0.2,0.1,0.3,0.2c5.1,3.9,10.5,7.5,16,10.8C283.3,439.9,283.8,441,283.4,441.8z"/>
				</g>
				<g>
					<path class="st0" d="M203,339.4c5.9,21,16,41,29.6,58.2"/>
					<path d="M231.3,398.6c-13.7-17.3-23.9-37.5-29.8-58.7c-0.4-1.2,0.1-2.4,1-2.6c0.9-0.2,1.7,0.6,2.1,1.7
						c5.8,20.9,15.9,40.6,29.3,57.6c0.7,1,0.8,2.2,0.1,2.8C233.2,399.9,232,399.6,231.3,398.6z"/>
				</g>
				<g>
					<polyline class="st0" points="249.8,427.6 251,428.7 252.2,429.8 					"/>
					<path class="st0" d="M265.5,440c-0.2-0.1-0.4-0.3-0.6-0.4c-0.1-0.1-0.2-0.2-0.4-0.3c-0.4-0.3-0.8-0.6-1.2-0.8
						c-0.2-0.1-0.4-0.2-0.5-0.4c-0.2-0.2-0.4-0.3-0.7-0.5"/>
					<polyline class="st0" points="258.4,434.8 257.8,434.3 257.2,433.8 256.6,433.4 256,432.9 					"/>
					<path d="M251.1,426.6l1.3,1.1c0,0.1,0,0.2,0,0.4c0,0.6-0.1,1.1-0.1,1.7c0,0.7-0.1,1.3-0.1,2l-0.8-0.7l-0.4-0.3l-1.2-1
						c0-0.7,0.1-1.4,0.1-2c0-0.7,0-1.4,0.1-2.1L251.1,426.6z"/>
					<path d="M257.6,432.1l1,0.8c0,0.1,0,0.2,0,0.4c0,0.4-0.1,0.7-0.1,1.1c0,0.2,0,0.4,0,0.5c-0.1,0.6-0.1,1.3-0.2,1.9l-1.2-0.9
						l-1.2-0.9c0-0.2,0-0.4,0-0.5c0-0.4,0.1-0.8,0.1-1.2c0,0,0-0.1,0-0.1c0-0.6,0.1-1.3,0.1-1.9l1.2,1L257.6,432.1z"/>
					<path d="M264.7,437.5c0,0.2,0,0.4,0,0.6c0,0.4-0.1,0.8-0.1,1.3c-0.1,0.6-0.1,1.2-0.2,1.8c-0.4-0.3-0.8-0.6-1.2-0.8
						c-0.2-0.1-0.4-0.3-0.5-0.4c-0.2-0.2-0.4-0.3-0.6-0.5c0.1-0.5,0.1-1.1,0.2-1.6c0-0.1,0-0.1,0-0.2c0.1-0.6,0.1-1.2,0.1-1.9
						c0.2,0.2,0.5,0.4,0.7,0.5c0.2,0.1,0.3,0.2,0.5,0.4C263.9,436.9,264.3,437.2,264.7,437.5z"/>
					<path d="M267.4,441.4c-0.5,0.7-1.7,0.7-2.7,0l0.2-1.8l0.2-1.8c0.4,0.3,0.9,0.6,1.3,0.9C267.5,439.5,267.9,440.6,267.4,441.4z"
						/>
				</g>
				<g>
					<path class="st0" d="M192.6,331.7c3.8,16.5,9.7,32.8,18.1,47.7c2,3.8,4.4,7.4,6.6,11l3.6,5.3c0.6,0.9,1.2,1.8,1.8,2.6l2,2.5
						c3.5,4.7,7.3,9.1,11.2,13.3"/>
					<path d="M236,411.8v4.7c-4.4-4.7-8.6-9.5-12.5-14.7l-2-2.6c-0.6-0.9-1.2-1.8-1.9-2.6l-3.7-5.3c-2.3-3.7-4.7-7.3-6.7-11.1
						c-8.5-15.1-14.4-31.5-18.2-48.1c-0.3-1.3,0.2-2.4,1.1-2.6c0.9-0.2,1.8,0.7,2,1.9c3.8,16.4,9.6,32.5,17.9,47.3
						c2,3.8,4.3,7.3,6.5,10.9l3.6,5.2c0.6,0.9,1.2,1.7,1.8,2.6l1.9,2.5C229.2,404,232.6,407.9,236,411.8z"/>
				</g>
			</g>
			<g>
				<g>
					<path class="st0" d="M382.2,440c4.5-0.2,9-0.6,13.5-1.2"/>
					<path d="M504.8,395.5c1.9,1.6,3.2,3.6,4,6c0.8,2.3,1,5,0.7,7.8c-0.7,5.6-3.9,11.7-9.3,16.6c-14.6,13.3-31.6,24.4-49.7,32.5
						c-18.2,8.1-37.8,13.2-57.5,15.1c-1.3,0.1-2.4-0.5-2.5-1.4c-0.1-0.9,0.9-1.7,2.2-1.8c10.8-1,21.5-3,32-6
						c10.5-3,20.7-6.9,30.5-11.7c1.8-0.9,2.7-2.6,2.1-3.8c-0.6-1.2-2.5-1.5-4.3-0.6c-12.6,6.2-26,10.9-39.8,13.9
						c-13.8,3-27.9,4.3-41.8,4.1c-1.2,0-2.2-0.8-2.2-1.6c0-0.9,1-1.6,2.2-1.6c12,0.2,24.1-0.8,35.9-3c11.9-2.2,23.5-5.7,34.7-10.3
						c1.7-0.7,2.7-2.4,2.2-3.6c-0.6-1.2-2.4-1.7-4.1-1c-13.5,5.6-27.7,9.4-42.1,11.4c-14.5,1.9-29.1,2-43.6,0.7
						c-3.6-0.4-7.3-0.7-10.8-1.4c-1.8-0.3-3.6-0.5-5.4-0.9l-5.4-1.1c-0.9-0.2-1.8-0.4-2.7-0.6l-2.6-0.7l-5.3-1.4l-5.2-1.6l-2.6-0.8
						l-2.6-1l-5.1-1.9l-5-2.2l-2.5-1.1c-0.8-0.4-1.6-0.8-2.5-1.2l-4.9-2.4c-1.6-0.9-3.2-1.8-4.8-2.7l-2.4-1.3
						c-0.8-0.5-1.5-1-2.3-1.4l-4.6-2.9c-1.5-1-3-2.1-4.5-3.1c-1-0.7-1.3-1.8-0.8-2.5c0.5-0.7,1.7-0.7,2.7-0.1
						c10,7.2,20.8,13.2,32.2,17.8c11.4,4.6,23.4,7.8,35.5,9.8c24.3,3.8,49.5,3.4,73.4-2.6c1.7-0.5,2.9-1.9,2.5-3.2
						c-0.4-1.3-2-2-3.7-1.6c-7.4,1.8-14.9,3.2-22.5,4c-7.6,0.8-15.2,1.1-22.9,0.9c-1.2,0-2.1-0.8-2-1.6c0-0.9,1-1.6,2.1-1.6
						c17.6,0.5,35.2-1.8,51.9-6.8c1.7-0.5,2.6-2,2.2-3.3c-0.4-1.3-2-1.9-3.6-1.4c-12.2,3.7-24.9,5.9-37.7,6.5c-1.1,0-2-0.6-2-1.5
						c0-0.9,0.8-1.6,1.9-1.7c17.4-0.8,34.5-4.6,50.4-11.2c16-6.7,30.8-16.1,43.7-27.8c4.4-4,9.5-6.4,14.7-7.2
						C496,391.4,501,392.3,504.8,395.5z"/>
				</g>
				<g>
					<path class="st0" d="M300.4,423.3c10.8,5.6,22.3,9.8,34.3,12.6c12,2.7,24.4,4.1,36.9,4.2"/>
					<path d="M371.6,441.7c-12.7-0.2-25.2-1.5-37.3-4.3c-12.1-2.8-23.7-7.1-34.7-12.8c-1-0.5-1.4-1.6-0.9-2.3c0.4-0.8,1.5-1,2.4-0.5
						c10.7,5.5,22.1,9.7,33.9,12.5c11.9,2.7,24.2,4,36.6,4.2c1.1,0,1.9,0.8,1.9,1.6C373.6,441.1,372.7,441.8,371.6,441.7z"/>
				</g>
				<g>
					<path class="st0" d="M369.5,448.2c10.6,0.3,21.2-0.4,31.6-2.1"/>
				</g>
				<g>
					<path class="st0" d="M292.4,428.1c10.3,5.8,21.3,10.4,32.7,13.7c11.4,3.2,23.3,5.2,35.2,6"/>
					<path d="M360.2,449.4c-12.1-0.8-24-2.8-35.5-6.1c-11.5-3.3-22.6-8-33.1-13.9c-1-0.6-1.4-1.6-1-2.4c0.4-0.8,1.6-0.9,2.5-0.4
						c10.2,5.8,21.1,10.3,32.4,13.6c11.3,3.2,23,5.1,34.9,5.9c1.1,0.1,2,0.8,1.9,1.7C362.3,448.9,361.3,449.5,360.2,449.4z"/>
				</g>
				<g>
					<path class="st0" d="M274,426.1c9,6.5,18.7,12,28.9,16.4c10.2,4.4,20.8,7.8,31.7,10c10.9,2.3,22,3.5,33.1,3.8
						c11.1,0.4,22.3-0.2,33.2-1.9"/>
				</g>
				<g>
					<path class="st0" d="M371.4,464.6c9.2,0.2,18.4-0.4,27.5-1.6"/>
				</g>
				<g>
					<path class="st0" d="M297.9,449.2c10,4.5,20.4,8,31.1,10.5c10.6,2.5,21.5,3.9,32.3,4.5"/>
					<path d="M361.2,465.8c-10.9-0.6-21.8-2.1-32.6-4.6c-10.7-2.5-21.3-6-31.4-10.6c-1.1-0.5-1.8-1.5-1.4-2.4c0.4-0.8,1.6-1,2.7-0.6
						c9.9,4.5,20.2,7.9,30.8,10.4c10.5,2.5,21.3,3.9,32,4.5c1.2,0.1,2.2,0.9,2.1,1.7C363.5,465.3,362.4,465.9,361.2,465.8z"/>
				</g>
				<g>
					<path class="st0" d="M392.8,471.9c23-2.1,45.8-8.8,66.3-19.4"/>
				</g>
				<g>
					<path class="st0" d="M285.3,452.2c3.8,1.9,7.6,3.9,11.6,5.5c3.9,1.8,7.9,3.2,11.9,4.7c2,0.7,4.1,1.3,6.1,2l3.1,1l3.1,0.8
						c2.1,0.5,4.1,1.1,6.2,1.6l6.2,1.3c2.1,0.5,4.2,0.8,6.3,1.1c2.1,0.3,4.2,0.7,6.3,1c4.2,0.4,8.4,1,12.6,1.2
						c2.1,0.1,4.2,0.3,6.3,0.4l6.3,0.1c4.2,0.1,8.4,0,12.6-0.2"/>
					<path d="M383.8,474.1c-2.1,0.1-4.3,0.2-6.4,0.2c-2.1,0-4.3,0.1-6.3,0l-6.3-0.1c-2.1-0.1-4.2-0.3-6.3-0.4
						c-4.2-0.2-8.4-0.8-12.7-1.2c-2.1-0.3-4.2-0.6-6.3-1c-2.1-0.3-4.2-0.7-6.3-1.1l-6.3-1.3c-2.1-0.5-4.2-1.1-6.2-1.6l-3.1-0.8
						l-3.1-1c-2.1-0.7-4.1-1.3-6.2-2c-4-1.5-8.1-2.9-12-4.7c-4-1.6-7.8-3.6-11.7-5.5c-1.2-0.6-1.7-1.8-1.3-2.5
						c0.4-0.8,1.7-0.9,2.8-0.3c3.8,1.9,7.6,3.8,11.5,5.4c3.9,1.8,7.9,3.2,11.8,4.6c2,0.7,4,1.3,6,1.9l3,0.9l3.1,0.8
						c2,0.5,4.1,1.1,6.1,1.6l6.2,1.3c2.1,0.5,4.1,0.8,6.2,1.1c2.1,0.3,4.1,0.7,6.2,0.9c4.2,0.4,8.3,1,12.5,1.2
						c2.1,0.1,4.2,0.3,6.2,0.4l6.2,0.1c4.1,0.1,8.4,0,12.5-0.2c1.3-0.1,2.3,0.6,2.4,1.5C386.1,473.3,385.1,474.1,383.8,474.1z"/>
				</g>
			</g>
		</g>
		<path d="M392.6,95.8c0.1-0.9,1.2-1.5,2.5-1.3l6.4,0.8l1.6,0.2l1.6,0.3l3.2,0.6l3.2,0.6l1.6,0.3l1.6,0.4l6.3,1.5
			c1.1,0.2,2.1,0.5,3.1,0.8l3.1,0.9c2.1,0.6,4.2,1.2,6.2,2l6.2,2.2c2,0.8,4,1.7,6,2.5l3,1.3l2.9,1.4c2,1,3.9,1.9,5.9,2.9
			c3.8,2.2,7.7,4.2,11.3,6.7l2.7,1.8l1.4,0.9l1.3,1l5.3,3.8c0.9,0.6,1.7,1.3,2.6,2l2.5,2.1c1.7,1.4,3.4,2.7,4.9,4.2
			c1,0.9,1.3,2.1,0.7,2.8c-0.6,0.7-1.8,0.5-2.8-0.4c-0.6-0.6-1.2-1.1-1.9-1.7l-1.9-1.6l-3.9-3.2c-1.3-1.1-2.7-2-4-3l-4.1-3
			c-1.7-1.1-3.7-1.1-4.4,0.1c-0.8,1.2,0,2.9,1.6,4l3.8,2.8l1.9,1.4c0.6,0.5,1.3,0.9,1.9,1.4c1,0.8,1.3,2,0.8,2.7
			c-0.6,0.7-1.8,0.6-2.7-0.1l-0.6-0.5c-1.5-1.1-3.4-1.1-4.2-0.1l0,0c-0.8,1.1-0.3,2.9,1.2,4c8.6,6.7,16.5,14.3,23.6,22.5
			c0.8,0.9,0.9,2.1,0.2,2.6c-0.7,0.6-1.8,0.3-2.6-0.6c-8.3-9.6-17.7-18.2-28-25.6c-0.7-0.5-1.5-0.8-2.3-0.8c-0.7,0-1.4,0.4-1.8,0.9
			l0,0c-0.4,0.6-0.4,1.3-0.2,2c0.2,0.7,0.7,1.4,1.4,1.9l4.1,3c1.3,1,2.6,2.1,4,3.2c2.7,2.1,5.1,4.5,7.7,6.8c0.4,0.4,0.7,0.9,0.7,1.3
			c0.1,0.5-0.1,0.9-0.4,1.2c-0.3,0.3-0.7,0.4-1.2,0.4c-0.5,0-1-0.2-1.4-0.6l-4.8-4.3l-5-4.1l-1.2-1l-1.3-0.9l-2.6-1.9l-2.6-1.9
			l-2.7-1.7c-1.4-0.9-3.2-0.7-3.9,0.4l0,0c-0.7,1.2-0.2,2.8,1.2,3.7c2.9,1.7,5.5,3.8,8.2,5.8c1.3,1,2.6,2.1,3.9,3.2
			c1.3,1.1,2.6,2.1,3.9,3.3c0.8,0.7,0.9,1.8,0.4,2.5c-0.6,0.7-1.7,0.6-2.5-0.1c-18-16.1-39.9-26.7-63.8-30.7c-1-0.2-1.7-1-1.6-1.9
			c0.1-0.9,1.1-1.4,2.2-1.2c1.5,0.3,3,0.5,4.5,0.8l4.5,1l2.2,0.5c0.7,0.2,1.5,0.4,2.2,0.6l4.4,1.3c0.8,0.2,1.6,0.2,2.2,0
			c0.7-0.2,1.2-0.7,1.4-1.4l0,0c0.2-0.6,0.1-1.3-0.3-2c-0.4-0.6-1-1.1-1.8-1.4l-3.8-1.1c-1.3-0.4-2.5-0.8-3.8-1.1
			c-1.1-0.3-1.8-1.1-1.6-2c0.2-0.9,1.3-1.3,2.4-1.1l1.1,0.3l1.1,0.3c1.7,0.5,3.3-0.2,3.7-1.5l0,0c0.4-1.3-0.7-2.8-2.4-3.3l-1.2-0.3
			l-1.2-0.3l-2.4-0.6c-1.6-0.4-3.2-0.8-4.9-1.1l-4.9-0.9c-1.6-0.3-3.3-0.6-4.9-0.8c-1.2-0.1-2-1-1.9-1.8c0.1-0.9,1.2-1.5,2.3-1.3
			c5.4,0.8,10.7,1.7,15.9,3c1.8,0.4,3.5-0.3,3.9-1.6l0,0c0.4-1.3-0.9-2.8-2.7-3.2l-0.4-0.1c-1.2-0.3-2-1.2-1.8-2.1
			c0.2-0.9,1.4-1.3,2.6-1l2.2,0.5c0.7,0.2,1.5,0.3,2.2,0.6l4.4,1.3c1.9,0.6,3.7-0.1,4.1-1.4h0c0.4-1.3-0.8-2.8-2.7-3.4
			c-10.4-3.1-21.1-5.3-31.8-6.4C393.5,97.5,392.5,96.7,392.6,95.8z"/>
	</g>
	<path d="M237,139.3v-14.9h2.8v14.9c0,0.7-0.6,1.3-1.4,1.3C237.6,140.6,237,140,237,139.3z"/>
	<path d="M259.1,124.4v1c0,0.7-0.6,1.3-1.4,1.3s-1.4-0.6-1.4-1.3v-1H259.1z"/>
	<path d="M265.6,124.4v8c0,0.7-0.6,1.3-1.4,1.3c-0.8,0-1.4-0.6-1.4-1.3v-8H265.6z"/>
	<path d="M243.4,126.5v-3h9.2v12.4c-0.2,0.7-0.8,1.2-1.5,1.2c0,0-0.1,0-0.1,0c-0.6-0.1-1.1-0.6-1.1-1.2v-9.6c0-1.1-2-1.8-2-1.8h0
		c0,0-1.9,0.8-1.7,1.8v0.2c-0.2,0.7-0.8,1.3-1.5,1.3C244,127.8,243.4,127.2,243.4,126.5z"/>
	<path d="M239.7,168.5V215H237v-46.4c0-0.5,0.3-1.1,0.8-1.3C238.8,167,239.7,167.6,239.7,168.5z"/>
	<path d="M246.2,174.5v37.3c0,0.7-0.6,1.3-1.4,1.3c-0.8,0-1.4-0.6-1.4-1.3v-37.3c0-0.7,0.6-1.3,1.4-1.3
		C245.6,173.2,246.2,173.7,246.2,174.5z"/>
	<path d="M252.7,155.3V215h-2.8v-59.7c0-0.7,0.6-1.3,1.4-1.3C252,154,252.7,154.6,252.7,155.3z"/>
	<path d="M259.1,165.8l0,44.7c0,0.5-0.3,1.1-0.8,1.2c-1,0.4-2-0.3-2-1.2v-44.8c0-0.1,0-0.2,0.1-0.3c0.1-0.4,0.5-0.8,0.9-0.9
		c0.1,0,0.3-0.1,0.4-0.1c0.6,0,1.1,0.3,1.3,0.8C259.1,165.5,259.1,165.6,259.1,165.8z"/>
	<path d="M257.6,214.7c0.3,0,0.6,0.1,0.8,0.3h-1.6C257.1,214.8,257.3,214.7,257.6,214.7z"/>
	<path d="M239.7,143.6v13.2c0,0.8-0.6,1.4-1.4,1.4c-0.8,0-1.4-0.6-1.4-1.4v-1.6c0,0-0.2,0.2-0.3,0.3c-0.1,0.1-0.2,0.2-0.6,0.2v-4.6
		c0.5-0.2,0.9-0.6,0.9-0.6v-6.9c0-0.8,0.6-1.4,1.4-1.4C239.1,142.2,239.7,142.8,239.7,143.6z"/>
	<path d="M246.2,132.3v31.6c0,0.7-0.6,1.3-1.4,1.3c-0.8,0-1.4-0.6-1.4-1.3v-31.5c0-0.5,0.3-1.1,0.8-1.2
		C245.2,130.8,246.2,131.5,246.2,132.3z"/>
	<path d="M259.1,130.2v21.6c0,0.8-0.6,1.4-1.4,1.4c-0.8,0-1.4-0.6-1.4-1.4v-21.6c0-0.8,0.6-1.4,1.4-1.4c0.6,0,1.2,0.4,1.3,1
		C259.1,130,259.1,130.1,259.1,130.2z"/>
	<path d="M259.1,155.5v3.5c0,0.8-0.6,1.4-1.4,1.4c-0.8,0-1.4-0.6-1.4-1.4v-3.5c0-0.5,0.3-1,0.8-1.2
		C258.1,153.8,259.1,154.5,259.1,155.5z"/>
	<path d="M265.6,168.5V215h-2.8v-46.5c0-0.7,0.6-1.3,1.4-1.3c0.5,0,1,0.3,1.2,0.7C265.5,168.1,265.6,168.3,265.6,168.5z"/>
	<path d="M265.6,138.6v14.7c0,0.8-0.6,1.4-1.4,1.4c-0.8,0-1.4-0.6-1.4-1.4v-14.7c0-0.8,0.6-1.4,1.4-1.4
		C265,137.2,265.6,137.8,265.6,138.6z"/>
	<path d="M256.4,381.4v-29.6h2.8v29.6c0,0.7-0.6,1.3-1.4,1.3C257,382.6,256.4,382.1,256.4,381.4z"/>
	<path d="M262.8,388.4v-36.7h2.8l0,36.6c0,0.5-0.3,1.1-0.8,1.2C263.8,389.9,262.8,389.3,262.8,388.4z"/>
	<path d="M239.7,351.7v43.4c0,0.2-0.1,0.5-0.2,0.7c-0.3,0.4-0.7,0.6-1.2,0.6c-0.8,0-1.4-0.6-1.4-1.3v-43.4H239.7z"/>
	<path d="M239.4,424.1c0,3.3-0.2,6.6-0.5,9.8h-2.6c0.3-3.3,0.5-6.6,0.5-9.9c0-0.6,0.6-1.1,1.3-1.2
		C238.9,422.9,239.4,423.5,239.4,424.1z"/>
	<path d="M245.7,429.6c-0.1,1.5-0.2,2.9-0.3,4.4h-2.6c0.1-1.5,0.2-3,0.3-4.5c0-0.7,0.6-1.2,1.3-1.2
		C245.2,428.3,245.8,428.9,245.7,429.6z"/>
	<path d="M243.4,382C243.4,382,243.4,382,243.4,382l0-31.2h2.8V382c0,0.7-0.6,1.3-1.4,1.3c-0.2,0-0.3,0-0.5-0.1h0
		C243.8,383,243.5,382.5,243.4,382z"/>
	<path d="M256.4,414.7v-3.5c0-0.8,0.6-1.4,1.4-1.4c0.8,0,1.4,0.6,1.4,1.4v3.5c0,0.8-0.6,1.4-1.4,1.4
		C257,416.1,256.4,415.4,256.4,414.7z"/>
	<path d="M239.7,399.3v13.2c0,1-1,1.7-2,1.3c-0.5-0.2-0.8-0.7-0.8-1.2v-13.2c0-0.5,0.3-1,0.8-1.2
		C238.8,397.6,239.7,398.3,239.7,399.3z"/>
	<path d="M245.9,387.3c0.2,0.2,0.3,0.5,0.3,0.7v31.6c0,0.7-0.6,1.3-1.4,1.3c-0.8,0-1.4-0.6-1.4-1.3V388c0-0.2,0-0.3,0.1-0.5
		c0.2-0.5,0.7-0.8,1.3-0.8C245.3,386.8,245.7,387,245.9,387.3z"/>
	<path d="M252.7,411v11.1c0,1.7-0.1,3.5-0.1,5.3c0,0.1,0,0.2,0,0.4c0,0.6-0.1,1.1-0.1,1.7c0,0.7-0.1,1.3-0.1,2
		c0,0.6-0.1,1.3-0.1,1.9c0,0.2,0,0.4-0.1,0.6h-2.7c0,0,0.2-2.8,0.3-4.3c0-0.7,0.1-1.4,0.1-2c0-0.7,0-1.4,0.1-2.1
		c0-0.4,0-0.9-0.9-1.3l0.9-5.4v-2.2v-2.2V411c0-0.7,0.6-1.3,1.4-1.3C252,409.7,252.7,410.3,252.7,411z"/>
	<path d="M258.3,420.1c0.5,0.2,0.8,0.7,0.8,1.3l0,1c0,0.7,0,1.4,0,2.1c0,0.7,0,1.3-0.1,2c0,0.2,0,0.4,0,0.6
		c-0.1,1.8-0.2,3.7-0.3,5.5c0,0.1,0,0.2,0,0.4c0,0.4-0.1,0.7-0.1,1.1h-2.8c0-0.4,0.1-0.8,0.1-1.2c0,0,0-0.1,0-0.1
		c0-0.6,0.1-1.3,0.1-1.9c0.1-1.2,0.1-2.5,0.2-3.7c0-0.9,0-1.7,0.1-2.6c0-0.7,0-1.4,0-2.1v-1.1c0-0.3,0.1-0.6,0.3-0.8
		C257,420,257.7,419.8,258.3,420.1z"/>
	<path d="M265.4,424.4c0,0.2,0,0.4,0,0.6c0,0.8,0,1.7-0.1,2.5c0,0.7,0,1.3-0.1,2c0,0.6-0.1,1.3-0.1,1.9c0,0.7-0.1,1.4-0.1,2.1
		c0,0.2,0,0.3,0,0.5h-2.6c0,0,0,0,0,0c0.1-1.5,0.2-3,0.3-4.5c0-0.7,0.1-1.3,0.1-2c0-0.7,0-1.3,0-2c0-0.2,0-0.4,0-0.7
		c0-0.2,0-0.3,0-0.5c0-0.8,0.6-1.4,1.3-1.4C264.8,423,265.4,423.7,265.4,424.4z"/>
	<path d="M266.5,428.5v4c-0.1-0.1-0.3-0.2-0.5-0.3l0.1-1.9l0.1-1.9C266.3,428.3,266.4,428.4,266.5,428.5z"/>
	<path d="M252.7,351.7v40.2c0,0.5-0.3,0.9-0.8,1.1c-0.3,0.2-0.7,0.2-1.1,0.1c-0.5-0.1-0.9-0.8-0.9-1.3l0-40.1H252.7z"/>
	<path d="M259.1,388.1v-2.2c0-0.8-0.6-1.4-1.4-1.4c-0.4,0-0.8,0.2-1.1,0.5c-0.2,0.2-0.3,0.6-0.3,0.9v1.4v2.6v8v2.5v2.5v4.6
		c0,0.8,0.6,1.4,1.4,1.4c0.8,0,1.4-0.6,1.4-1.4v-1.8v-2.4v-2.4v-11.1V388.1z"/>
	<path d="M262.8,396.9v7.7v4.5c0,0.1,0,0.2,0,0.3c0.1,0.6,0.6,1.1,1.2,1.1c0,0,0.1,0,0.1,0c0.7,0,1.2-0.5,1.4-1.1c0-0.1,0-0.2,0-0.3
		v-2v-7.4v-2.4v-2.4v-0.6c0-0.8-0.6-1.4-1.4-1.4c-0.8,0-1.4,0.6-1.4,1.4v0.9V396.9z"/>
	<path d="M262.5,433.7l1.3,0.1l1.3,0.1c0.1-0.7,0.1-1.4,0.1-2.1c0-0.6,0.1-1.3,0.1-1.9c0-0.7,0.1-1.3,0.1-2c0-0.8,0-1.7,0.1-2.5
		l-1.3-0.1l-1.3-0.1L262.5,433.7z"/>
	<path d="M264.8,436.2c0,0.4-0.1,0.8-0.1,1.3c0,0.2,0,0.4,0,0.6c0,0.4-0.1,0.8-0.1,1.3c-0.1,0.6-0.1,1.2-0.2,1.8
		c0,0.4-0.1,0.7-0.1,1.1l-1.3-0.1l-0.5-0.1l0.2-2.1l0.2-1.8l0.2-1.8l0-0.2l0.5,0.1L264.8,436.2z"/>
</g>
<g>
</g>
<g>
</g>
<g>
</g>
<g>
</g>
<g>
</g>
</svg>
